<?xml version="1.0" encoding="UTF-8"?>
<svg viewBox="0 0 473.98 244.49" xmlns="http://www.w3.org/2000/svg">
 <g fill-rule="evenodd">
  <path d="m407.47 56.615c-2.317 0.33-4.634 0.661-6.951 0.991h29.597c-3.675-0.645-7.372-1.226-11.107-1.356-2.011-0.07-4.014-0.09-6.025-0.042999-0.96899 0.021999-1.937 0.075001-2.905 0.119-0.699 0.029999-2.101-0.056999-2.609 0.289"/>
  <path d="m400.52 57.606c-8.543 1.49-17.414 2.956-25.471 6.266-1.958 0.805-3.78 2.146-5.424 3.456-1.507 1.203-3.319 2.704-4.195 4.457-0.44699 0.896-1.02 1.687-1.39 2.629-0.198 0.507-0.37997 0.995-0.52597 1.519-0.18503 0.66-0.44202 0.793-0.87903 1.316-1.331 1.593-1.893 3.778-2.498 5.72-0.133 0.423-0.26502 0.847-0.396 1.271-0.037994-0.037994-0.075012-0.075996-0.11301-0.113-0.25601 0.326-0.51099 0.653-0.767 0.979-0.20999 0.269-0.142 0.55199-0.186 0.884-0.13699 1.028-0.23801 1.635-0.75101 2.524 0.50803 0 2.614 0.277 2.828-0.122 0.48801-0.911 0.99701-1.819 1.414-2.766 0.81601-1.855 1.788-3.658 2.545-5.527 0.797-1.965 1.78-3.878 2.945-5.652 0.53299-0.812 1.126-1.656 1.751-2.399 0.746-0.88699 1.538-1.495 2.502-2.137 3.655-2.434 7.977-3.573 12.12-4.871 3.973-1.245 8.115-2.274 12.209-3.03 8.583-1.585 17.331-2.721 26.059-1.655 4.382 0.535 8.672 1.286 12.958 2.354 2.138 0.533 4.186 1.365 6.063 2.521 0.371 0.229 2.114 1.183 2.168 1.595 0.13599 1.057 0.271 2.114 0.405 3.171 0.56299 4.435 0.81299 8.896 0.81299 13.366 0 1.081-0.014984 2.161-0.026001 3.241-0.004974 0.396-0.059998 0.789-0.059998 1.185 0 0.811-0.050995 0.726 0.72601 0.726h2.211c0.76099 0 0.72299 0.095001 0.74399-0.697 0.029022-1.089 0.090027-2.179 0.121-3.269 0.12302-4.292 0.061005-8.642-0.33899-12.917-0.19101-2.047-0.302-4.261-0.86899-6.246-0.15402-0.541-0.19202-0.812-0.63501-1.211-0.33301-0.3-0.711-0.511-1.1-0.728-0.96399-0.539-1.922-1.084-2.916-1.565-3.904-1.885-8.019-3.415-12.284-4.242-1.165-0.227-2.532-0.030998-3.712-0.030998h-8.658c-5.796-0.002003-11.591-0.002003-17.387-0.002003"/>
  <path d="m279.23 55.879c-0.99399 0.459-1.905 1.118-2.811 1.727h4.263c1.104 0 2.072-0.788 3.162-0.727 1.315 0.072998 2.52 0.31 3.772 0.714 0.51901 0.167 1.317 0.013 1.857 0.013h2.014c-2.516-1.756-5.322-3.225-8.258-4.132-0.151 0.37-0.672-0.431-0.85098-0.623-0.345-0.371-0.68802-0.741-1.046-1.099-0.84198-0.839-1.692-1.667-2.551-2.49-1.494-1.435-3.13-2.768-4.775-4.024-3.384-2.583-7.023-5.046-10.853-6.92-0.77701-0.38-0.875-0.271-0.65399-1.118 0.05899-0.226 0.22-0.856 0.089996-1.047-0.56601-0.825-1.2-1.688-2.055-2.24-1.71-1.104-3.769-1.799-5.687-2.466-4.236-1.473-8.538-2.633-12.946-3.454-4.045-0.753-8.278-1.293-12.399-1.293-4.041 0-8.296-0.166-12.283 0.605-8.717 1.686-17.438 3.454-25.987 5.866-4.12 1.162-7.729 3.302-10.801 6.263-1.494 1.44-2.762 3.236-3.745 5.057-0.38101 0.706 0.069992 2.022 0.069992 2.825 0 0.539-0.106 1.038 0.227 1.475 0.042999 0.056999 0.40599 0.488 0.37199 0.518-0.286 0.247-0.571 0.494-0.856 0.741-2.582 2.236-4.804 4.915-6.951 7.558h5.297c0.15199 0 0.58-0.587 0.683-0.693 0.357-0.368 0.715-0.736 1.072-1.104 0.589-0.607 1.241-1.163 1.859-1.741 0.73799 0.904 1.493 1.739 2.331 2.552 0.29001 0.281 0.759 0.85 1.131 0.986 0.255 0.093998 0.72301 0 0.99 0h8.034c-3.755-1.923-7.288-4.417-10.108-7.581-0.375-0.42-0.75-0.841-1.122-1.265-0.347-0.396-0.091003-0.933-0.041992-1.451 0.054993-0.577 0.077988-0.839 0.327-1.38 0.207-0.446 0.588-0.962 0.899-1.343 1.302-1.593 3.028-2.776 4.814-3.774 7.524-4.207 15.521-7.497 24.068-8.937 8.367-1.41 17.097-2.251 25.564-1.251 4.325 0.51 8.597 1.2 12.789 2.401 2.219 0.636 4.376 1.361 6.541 2.164 1.033 0.383 2.043 0.821 3.06 1.246 0.875 0.365-0.17001 2.202-0.38501 2.663-0.44998 0.966-0.55798 1.979-0.75101 3.012-0.19598 1.044-0.41901 1.742-1.096 2.578-1.25 1.543-2.305 3.22-3.472 4.829-1.071 1.477-2.375 2.788-3.578 4.159-0.416 0.474-0.83101 0.947-1.247 1.421-0.23399 0.267-1.261 0.342-1.599 0.43-1.104 0.288-2.21 0.569-3.315 0.851-1.806 0.46-3.639 0.83-5.459 1.229h11.206c0.543 0 1.56 0.205 2.075 0 0.367-0.146 0.83-0.707 1.135-0.977 0.39-0.343 0.76201-0.706 1.108-1.094 0.685-0.77 1.325-1.587 1.872-2.458 0.48399-0.771 0.84399-1.617 1.433-2.321 0.66998-0.801 1.312-1.539 1.88-2.435 1.479-2.335 2.696-4.67 3.781-7.216 7.114 3.469 13.169 8.423 17.907 14.771m-101.51-6.085c0.011002-0.039997-0.039001-0.152 0.028-0.084999 0.054001 0.055-0.013 0.028-0.028 0.084999"/>
  <path d="m281.39 57.606h-4.957c-0.302 0-0.97299 0.622-1.228 0.813-1.771 1.325-3.471 2.704-5.038 4.267-3.04 3.033-5.476 6.365-7.632 10.066-0.17899 0.307-0.328 0.627-0.48498 0.946-0.075012 0.154-0.24402 0.378-0.27002 0.55-0.037994 0.256 0.26001 0.127 0.10001 0.464-0.16598 0.345-0.18799 0.766-0.35498 1.093-0.173 0.337-0.63702 0.568-0.76602 0.934-0.194 0.551-0.065002 1.559-0.054993 2.146 0.018005 0.888 0.050995 1.768 0.104 2.654 0.089996 1.496 0.43799 3.009 0.81699 4.453 0.215 0.817 0.513 1.606 0.79501 2.401 0.11801 0.332 1.921 0.119 2.312 0.119-0.815-1.887-1.581-3.804-1.653-5.895-0.069-2.016 0.082001-4.007 0.77802-5.922 0.176-0.483 0.28699-1.086 0.62-1.485 0.34-0.408 0.586-0.92601 0.74298-1.429 0.306-0.977 0.86002-1.83 1.421-2.696 1.108-1.71 2.383-3.385 3.81-4.843 1.72-1.757 3.605-3.326 5.436-4.966 1.699-1.522 3.418-2.736 5.503-3.67"/>
  <path d="m291.49 57.606h-3.83c1.863 0.786 3.402 1.967 4.682 3.538 1.191 1.463 2.394 2.862 3.667 4.26 3.04 3.337 6.08 6.673 9.11 10.02 2.237 2.47 4.506 4.914 6.676 7.443 1.053 1.227 2.086 2.468 3.117 3.713 0.41299 0.499 0.875 0.948 1.296 1.438 0.297 0.346 0.34702 0.496 0.797 0.496h1.274c-4.48-7.36-10.202-14.137-15.962-20.52-3.353-3.716-6.761-7.442-10.827-10.388"/>
  <path d="m360.67 88.513h-1.669c-0.76001 0-0.992-0.175-1.341 0.498-0.479 0.922-0.78101 1.934-1.012 2.942-0.211 0.922-0.99799 1.906-1.49 2.722-0.51401 0.853-1.012 1.735-1.541 2.591-1.081 1.746-2.292 3.449-3.577 5.051-0.76898 0.959-1.546 1.907-2.333 2.85-0.646 0.772-1.51 1.385-2.174 2.162-0.23602 0.277-0.44501 0.917-0.81302 1.004-0.51798 0.124-1.034 0.257-1.557 0.359-1.064 0.208-2.13 0.341-3.208 0.455 0.21201-0.621 0.418-1.237 0.59601-1.868-4.302-0.858-8.392-2.139-12.336-4.072-0.944-0.463-1.873-0.961-2.799-1.46-0.29001-0.156-0.979-0.396-1.115-0.673-0.25803-0.528-0.51703-1.054-0.79102-1.573-0.479-0.906-0.98801-1.793-1.563-2.642-0.272-0.403-0.55402-0.791-0.84802-1.179-0.29797-0.395-0.88599-0.906-0.94498-1.413-0.146-1.245-0.418-2.549-0.91-3.708-0.25302-0.595-0.534-1.177-0.824-1.755-0.27499-0.548-1.222-0.29-1.792-0.29 5.366 7.489-2.8 14.785-8.54 18.811-3.415 2.395-7.171 4.704-11.153 6.011-1.989 0.653-4.06 1.021-6.158 0.991-2.134-0.031006-4.229 0.155-6.215-0.792-0.94101-0.449-1.612-1.099-2.439-1.698-0.875-0.635-1.692-1.208-2.489-1.955-0.74298-0.699-1.684-1.184-2.452-1.869-0.79599-0.708-1.548-1.477-2.268-2.261-2.846-3.101-5.271-6.569-7.207-10.302 0.28702 1.021 0.599 2.035 0.90601 3.05 0.268 0.884 0.42099 2.095 0.866 2.889 1.063 1.896 1.988 3.871 3.094 5.742 2.104 3.564 4.961 6.88 8.298 9.345 0.767 0.566 1.661 1.481 2.618 1.686 0.91501 0.196 1.974 0.048996 2.897-0.059006 2.113-0.24799 4.254-0.433 6.327-0.934 4.169-1.008 8.227-2.357 11.977-4.475 5.646-3.188 10.808-6.985 14.294-12.546 0.616 1.908 1.291 3.796 2.083 5.639 0.216 0.501 0.237 0.667 0.698 0.91399 0.34698 0.186 1.112 0.813 1.504 0.80701 0.64899-0.010002 1.327-0.93201 1.703-1.331 0.30399-0.321 0.345-0.35101 0.73001-0.177 0.642 0.287 1.283 0.575 1.924 0.862 0.905 0.406 1.838 0.755 2.757 1.128 1.755 0.71201 3.597 1.242 5.401 1.81-1.287 1.387-2.296 3.013-3.421 4.532-1.271 1.714-2.56 3.408-3.872 5.091h5.107c-0.19202-0.141-0.39401-0.271-0.59601-0.396 1.293-1.29 2.587-2.62 3.65-4.108 0.495-0.692 0.95902-1.401 1.432-2.108 0.41901-0.626 0.56-0.378 1.26-0.139 0.362 0.124 0.77399 0.157 1.15 0.213-0.42801 1.394-0.64801 2.615-0.677 4.072-0.007019 0.345-0.054993 1.662 0.194 1.787 0.16901 0.084991 0.44299 0.19599 0.51898 0.36399 0.027008 0.058998 0.474 0.615 0.474 0.273 0-0.35 0.26001-0.426 0.39801-0.694 0.164-0.315 0.21701-0.74898 0.315-1.09 0.17801-0.614 0.354-1.232 0.50699-1.853 0.15302-0.625 0.31601-1.252 0.45001-1.881 0.046997-0.223 0.067993-0.933 0.23099-1.09 0.15002-0.14501 0.793-0.16501 0.992-0.19801-0.053986 1.624 0.013 3.133 0.255 4.74 0.065002 0.433 0.12601 1.84 0.45599 2.11 0.16 0.13099 0.974 0 1.177 0h1.177c-0.173-2.28-0.319-4.535-0.36798-6.82-0.007019-0.35501-0.15601-1.021-0.028015-1.359 0.15302-0.40399 0.862-0.831 1.183-1.151 0.69299-0.693 1.405-1.358 2.093-2.063 2.799-2.875 5.277-6.263 6.99-9.899 1.48-3.149 2.625-6.365 3.838-9.62"/>
  <path d="m333.6 119.42h-4.782c-0.85498 0-1.938 1.892-2.492 2.521-1.977 2.246-4.059 4.367-6.147 6.508-1.395-1.391-3.017-2.456-4.996-2.773-2.021-0.324-4.05 0.127-6.017 0.577-4.253 0.971-8.479 2.167-12.527 3.811-8.188 3.325-15.447 8.034-21.899 14.063-1.234 1.153-2.375 2.406-3.521 3.646-0.59 0.638-1.137 1.315-1.7 1.976-0.159 0.186-0.38501-0.039001-0.664 0.065994-0.45801 0.171-0.91602 0.343-1.374 0.51401h3.727c0.186 0 0.939 0.119 1.084-0.014008 0.505-0.46399 1.009-0.929 1.514-1.394 1.498-1.38 3.156-2.668 4.822-3.839 3.56-2.501 7.256-4.713 11.216-6.527 3.945-1.808 8.106-2.923 12.23-4.218 4.036-1.267 8.324-2.171 12.553-2.445 0.668-0.042999 1.336-0.086014 2.004-0.13-0.40601 0.33-0.81302 0.66-1.219 0.99 0.29398 0.033997 1.155-0.007004 1.219 0.25499 1.466-1.262 4.114-0.91 5.904-1.047-0.21799-0.123-0.43701-0.246-0.65399-0.368 0.393-0.246 0.64999 0.364 0.91098 0.625 0.33701 0.336 0.74301 0.614 1.133 0.88699 0.845 0.59 1.686 1.184 2.487 1.83 1.688 1.36 3.359 2.742 4.896 4.275 3.022 3.016 5.767 6.295 8.141 9.847 0.117 0.17401 0.685 1.272 0.86099 1.272h4.843c-0.43201-0.683-0.857-1.367-1.307-2.038 7.732-3.467 14.993-7.987 21.146-13.862 2.965-2.832 5.824-5.815 8.021-9.295 0.59799-0.94601 1.15-1.916 1.694-2.894 0.15399-0.278 1.138 0.352 1.411 0.475 0.50998 0.229 1.048 0.40601 1.57 0.604 1.911 0.727 3.979 1.245 6.002 1.538 4.438 0.644 9.08 0.402 13.557 0.465 4.348 0.062004 8.698-0.032997 13.045-0.095001 8.371-0.118 16.746-0.401 24.535-3.822 1.445-0.635 2.852-1.332 4.285-1.981h-7.496c-1.788 0-3.452 0.538-5.222 0.776-4.378 0.591-8.752 1.065-13.16 1.366-8.879 0.607-17.68 0.412-26.552-0.209-2.046-0.143-4.07-0.50101-6.081-0.896-0.97702-0.192-1.918-0.456-2.86-0.769-1.131-0.376-2.237-0.268-3.431-0.268h-1.614c-0.439 0-0.301 0.651-0.301 0.929 0 0.746-1.08 2.098-1.525 2.728-1.191 1.684-2.334 3.361-3.616 4.982-2.408 3.046-5.572 5.728-8.742 7.954-3.606 2.534-7.319 4.839-11.43 6.453-0.99701 0.392-1.98 0.81999-2.969 1.234-0.40799 0.171-0.819 0.33701-1.23 0.504-0.32498 0.13301-1.115 0.76001-1.392 0.688-0.29898-0.076996-0.845-1.152-1.03-1.405-0.271-0.371-0.548-0.73599-0.828-1.101-0.716-0.933-1.446-1.848-2.188-2.761-1.306-1.608-2.718-3.139-4.149-4.634-0.22101-0.231-0.625-0.48399-0.77103-0.771-0.203-0.398-0.12698-1.108-0.15399-1.545-0.062988-0.98401-0.061005-1.971-0.027985-2.957 0.054993-1.692 0.17398-3.403 0.47098-5.072 0.177-0.99 0.36902-1.971 0.57602-2.955 0.129-0.631 0.72998-1.812 0.20999-2.274m-8.826 9.482c1.861-2.208 3.653-4.454 5.422-6.736-0.74399 3.049-1.229 6.076-1.193 9.227-1.309-0.97-2.774-1.767-4.229-2.491"/>
  <path d="m346.97 119.42h-2.354c0.21899 0.791 0.46802 1.561 0.76102 2.328 0.14499 0.382 0.69998 1.812 1.367 1.479 0.61401-0.307 0.60602-0.567 0.51602-1.251-0.11301-0.852-0.20599-1.701-0.29001-2.556"/>
  <path d="m341.01 119.42c-0.10001-0.016998-0.211 0-0.31299 0 0.041992 0.064003 0.14099 0.154 0.199 0.197 0.038971-0.064995 0.075989-0.131 0.11398-0.197"/>
  <path d="m448.28 88.513h-3.545c-0.26901 0-0.24002 2.228-0.26901 2.646-0.15302 2.298-0.358 4.588-0.58701 6.88-0.41598 4.175-0.80399 8.61-2.041 12.625-0.28799 0.936-0.78302 1.81-1.334 2.614-0.38199 0.557-0.483 0.477-1.051 0.736-0.301 0.137-0.85998 0.847-1.101 0.88-2.202 0.31-4.403 0.605-6.618 0.818-4.381 0.42001-8.796 0.623-13.196 0.567-2.493-0.030998-5.008-0.102-7.492-0.325-1.431-0.12801-2.864-0.236-4.292-0.4-0.62799-0.071999-1.257-0.139-1.884-0.221-0.58701-0.077003-1.42-0.042-1.938-0.3 0.43298-0.355 0.86398-0.71 1.297-1.065 0.30701-0.252-0.042999-0.807-0.30499-1.029-0.647-0.551-1.924 0.068001-2.61 0.438-0.85998 0.465-1.636 1.216-1.931 2.176-0.13998 0.455-0.371 0.941 0.054993 1.244 0.076019 0.055 0.49103 0.422 0.56802 0.369 0.31299-0.218 0.62698-0.436 0.94098-0.653 0.50601-0.352 0.52103 0.028 1.002 0.296 0.47601 0.265 0.935 0.517 1.465 0.657 1.067 0.284 2.226 0.309 3.316 0.424 2.084 0.219 4.171 0.397 6.262 0.532 6.503 0.41901 12.968 0.469 19.48 0.261-0.72101 0.24-1.439 0.485-2.156 0.736h8.704c0.25201 0 0.67502-0.377 0.90201-0.506 0.892-0.508 1.907-0.992 2.64-1.717 0.70099-0.696 1.035-1.528 1.42-2.434 0.32501-0.767 0.68402-1.604 0.90701-2.408 0.60498-2.175 1.038-4.339 1.405-6.566 0.948-5.73 1.543-11.487 1.986-17.275"/>
  <path d="m372.65 119.42h4.285c-1.219-0.53-3.249-1.379-4.285 0"/>
  <path d="m211.52 61.2c-4.227 0.162-8.407 0.143-12.557-0.797-2.059-0.466-4.075-1.085-6.02-1.911-0.72501-0.307-1.552-0.887-2.342-0.887h-8.679c3.487 2.632 7.658 3.987 11.806 5.228 4.064 1.215 8.294 1.995 12.514 2.4 8.523 0.818 17.112-0.128 25.35-2.41 1.696-0.47 3.374-1.084 5.116-1.361 1.787-0.284 3.596-0.353 5.388-0.608 1.337-0.19 2.587-0.641 3.833-1.056 1.539-0.513 2.754-1.494 4.186-2.193h-6.64c-2.185 0-4.463-0.19-6.641 0-2.102 0.184-4.234 0.839-6.314 1.191-2.11 0.357-4.221 0.741-6.343 1.024-4.212 0.564-8.425 1.004-12.657 1.38"/>
  <path d="m174.86 57.606h-5.221c-0.28201 0-0.705 0.798-0.86601 1.005-1.304 1.679-2.527 3.441-3.646 5.25-1.192 1.925-2.28 3.924-3.412 5.885-0.54599 0.946-1.099 1.889-1.648 2.833-0.087997 0.152-0.44099 0.98299-0.63 0.948-0.50299-0.094002-1.056-0.062004-1.558 0.050003-0.85199 0.19099-1.654 0.384-2.469 0.69299-0.883 0.33501-1.283 0.77901-1.926 1.461-1.35 1.432-2.665 2.873-3.957 4.357-2.374 2.729-4.607 5.542-6.792 8.424h1.547c0.392 0 1.397 0.194 1.745 0 0.34299-0.192 0.689-0.92 0.922-1.231 0.30899-0.413 0.599-0.85 0.93199-1.243 1.343-1.588 2.659-3.237 4.113-4.726 1.462-1.496 2.869-3.35 4.958-3.968 1.833-0.542 4.304-0.488 6.12 0.175 0.78999 0.289 1.546 0.593 2.294 0.979 0.67801 0.35 1.191 0.908 1.916 1.137 1.475 0.465 2.887 1.496 3.994 2.553 1.14 1.09 2.143 2.273 2.761 3.743 0.33501 0.795 0.561 1.59 0.758 2.43 0.085999 0.36599 1.924 0.15 2.334 0.15-0.054001-0.791-0.17-1.598-0.17-2.389 0-0.46-0.069992-0.928-0.107-1.386-0.02301-0.28 0.057999-0.96701-0.149-1.181-1.388-1.437-2.799-2.81-4.315-4.111-2.746-2.355-5.925-4.086-9.192-5.594 3.225-5.907 7.054-11.334 11.664-16.244"/>
  <path d="m146.02 88.513h-1.547c-0.401 0-1.387-0.192-1.745 0-0.362 0.195-0.73801 0.978-0.983 1.302-0.278 0.369-0.56801 0.731-0.83101 1.111-1.267 1.83-2.564 3.644-3.74 5.533-2.373 3.813-4.648 7.653-6.697 11.652-0.203 0.396 0.159 1-0.076004 1.407-0.345 0.598-0.562 1.105-0.76999 1.765-0.289 0.917-0.42 2.094-0.27501 3.047 0.10501 0.69 0.18401 0.852-0.24899 1.411-0.365 0.472-0.729 0.94801-1.122 1.396-0.685 0.78-1.399 1.523-2.113 2.283h5.226c0.386 0 0.51199-0.393 0.70599-0.708 0.26201 0.463 0.214 0.708 0.729 0.708h19.703c-4.123-0.558-8.396-0.904-12.557-0.699-1.266 0.062996-2.532 0.125-3.797 0.187-0.283 0.014-0.907 0.14101-1.121-0.022995-0.44899-0.344-0.894-0.683-1.312-1.064-0.308-0.281-0.648-0.583-0.681-0.948-0.046005-0.506 0.134-0.893-0.028-1.416-0.135-0.436-0.433-0.689-0.625-1.075-0.22501-0.454-0.33-1.069-0.38899-1.566-0.22601-1.905-0.11601-4.127 1.042-5.693 1.32-1.787 2.791-3.475 4.299-5.105 0.63301-0.684 0.85301-1.726 1.504-2.452 0.36301-0.405 0.395-0.938 0.71301-1.401 0.26999-0.393 0.56999-0.789 0.89-1.141 1.392-1.532 2.36-3.513 3.509-5.245 0.745-1.123 1.525-2.192 2.337-3.266"/>
  <path d="m177.13 88.513h-2.298c0.243 4.122-0.133 8.274-0.752 12.348-0.60899 4.015-1.557 8.18-3.071 11.958-0.89101 2.223-1.8 4.417-2.789 6.601 0.442 0 2.97 0.204 3.032-0.126 0.201-1.08 0.472-2.115 0.80501-3.161 0.649-2.042 1.499-4.017 2.147-6.063 1.202-3.793 2.12-7.772 2.524-11.734 0.33501-3.287 0.40201-6.525 0.40201-9.823"/>
  <path d="m131.33 119.42h-3.607c-0.704 0-1.979-0.278-2.466 0.438-0.395 0.581-1.404 1.111-1.986 1.486-0.641 0.41299-1.37 0.734-2.043 1.075-1.649 0.834-3.498 1.414-5.357 1.008-2.096-0.458-3.95-1.563-6.08-1.877-2.011-0.297-4.002 0.451-5.354 1.95-0.75 0.832-1.071 1.794-1.655 2.711-0.329 0.515-0.487 0.627-0.573 1.275-0.063004 0.471-0.062004 0.96899-0.022003 1.442 0.166 1.986 0.872 3.987 1.895 5.688 0.516 0.85599 1.175 1.69 1.946 2.33 0.422 0.34999 0.862 0.655 1.325 0.94699 0.338 0.213 1.017 0.392 1.273 0.688 1.635 1.881 3.471 3.487 5.788 4.466 0.429 0.181 1.108 0.254 1.268 0.56999 0.259 0.51601 0.722 0.979 1.121 1.387 0.848 0.868 1.863 1.495 2.952 2.01-1.044 1.076-2.036 2.195-3.037 3.312h3.652c0.787 0 1.593-1.367 2.137-1.896 1.417-1.38 2.738-2.809 4.314-4.002 0.407-0.30901 0.82-0.60901 1.213-0.936 0.459-0.382 0.845-0.56599 1.307-0.864 0.879-0.56599 1.764-1.125 2.698-1.6 1.883-0.95799 3.866-1.846 5.904-2.427 1.042-0.29701 2.155-0.69801 3.237-0.813 1.089-0.116 2.246-0.020996 3.339 0.015991 2.137 0.072006 4.278 0.31001 6.39 0.63701 2.096 0.324 3.98 0.786 5.868 1.771 1.91 0.99699 3.783 2.108 5.544 3.35 1.779 1.254 3.387 2.712 4.835 4.335 0.35199 0.395 0.67799 0.808 1.01 1.22 0.252 0.312 0.56599 1.048 0.909 1.209 0.276 0.13 0.927 0 1.222 0h23.552c-2.203-0.599-4.406-1.194-6.611-1.786-0.75601-0.203-1.693 0.007004-2.491-0.102-0.94099-0.12799-1.909-0.373-2.83-0.607-2.075-0.52701-4.107-1.273-5.938-2.399-1.905-1.172-3.388-2.647-5.032-4.135-3.021-2.734-7.11-4.678-11.002-5.797-4.235-1.218-8.438-1.625-12.833-1.312-2.047 0.146-4.216 0.91901-6.22 1.356-2.253 0.492-4.485 1.074-6.744 1.551-2.007 0.425-3.978 0.85701-5.938 1.428-2.003 0.58299-4.174 0.578-6.245 0.547-4.047-0.059006-8.279-0.454-11.747-2.613-1.731-1.078-3.285-2.517-4.456-4.188-0.509-0.72801-0.618-1.937-0.731-2.837-0.126-1.007 0.128-1.923 0.81-2.688 0.596-0.669 1.347-1.597 2.316-1.639 1.121-0.048996 2.219-0.104 3.338-0.009995 1.008 0.084 1.979 0.202 2.965 0.438 0.457 0.109 1.266 0.136 1.632 0.44 0.31599 0.263 0.669 0.488 1.049 0.644 4.042 1.661 8.285 2.865 12.677 3.027 3.911 0.14499 7.725-0.34201 11.53-1.224-2.591-1.724-5.688-1.101-8.63-1.245-3.218-0.158-6.343-0.667-9.503-1.274 1.674-0.731 3.221-1.538 4.622-2.734 1.302-1.113 2.394-2.432 3.493-3.747m-9.223 23.463c0.63401-0.134 1.26-0.246 1.901-0.34-0.085999 0.20999-0.152 0.42899-0.199 0.65099 0.47302-0.056992 0.94601-0.11299 1.419-0.17-1.14 0.58701-2.185 1.303-3.178 2.065-0.691-0.59-1.41-1.141-2.128-1.697 0.59598-0.17801 1.18-0.324 1.788-0.453-0.113-0.168-0.238-0.33-0.397-0.453 0.352-0.31 0.56599 0.14999 0.794 0.397"/>
  <path d="m171.22 119.42c-0.71201 0-2.791-0.372-3.155 0.252-0.22 0.375-0.18401 0.85101-0.074005 1.252 0.056992 0.20901-0.826 1.04-1 1.253-0.507 0.621-1.627-0.097-2.367-0.296-1.119-0.30199-2.235-0.576-3.365-0.835-3.656-0.839-7.325-1.627-11.085-1.627h-18.002c0.388 0.995 0.69299 1.826 1.889 1.795s2.389-0.041 3.585-0.041c2.173 0 4.35 0.074005 6.522 0.13 4.316 0.11 8.65 0.521 12.937 1.021 2.92 0.341 5.824 0.794 8.722 1.289 0.727 0.124 1.45 0.263 2.175 0.404 0.176 0.034004 0.774 0.262 0.83499 0.061005 0.10501-0.339 0.26201-0.65601 0.38-0.992 0.24-0.682 0.561-1.308 0.922-1.934 0.31601-0.546 0.96602-1.115 1.081-1.732"/>
  <path d="m264.73 88.513h-2.27c0.32303 0.758 0.73602 2.654 1.787 2.392 0.49701-0.125 0.737-0.55 0.85199-1.033 0.13-0.55-0.13-0.858-0.36899-1.359"/>
  <path d="m183.57 166.86c4.141 1.113 8.201 2.448 12.286 3.747 4.292 1.364 8.616 2.553 12.993 3.614 0.907 0.22 1.791 0.45599 2.705 0.633 0.698 0.136 1.396 0.271 2.094 0.407 0.16899 0.033005 0.31499-0.009003 0.31499 0.174 0 0.229 0.56001 0.16 0.75301 0.17601 0.33 0.028 1.014-0.104 1.001 0.285-0.022003 0.71799-0.045013 1.437-0.068008 2.155-0.033005 1.043-0.029999 2.087-0.041 3.131h2.667c-0.11101-1.747-0.11301-3.486-0.11301-5.236 2.099 0.13701 4.147-0.664 6.241-0.939 2.251-0.296 4.468-0.286 6.725-0.059006 1.017 0.10301 2.002 0.26601 3.007 0.45401 0.44499 0.082993 2.651 0.392 2.841 0.827 0.09201 0.209-0.29199 1.177-0.34 1.471-0.085999 0.51399-0.214 1.054-0.229 1.574-0.015991 0.577-0.026993 1.151-0.026993 1.729 0 0.35899 0.821 0.17999 1.118 0.17999h2.408c0.48599 0 0.76199 0.17601 0.83299-0.319 0.186-1.285 0.3-2.594 0.494-3.87 0.216 0.028 0.43001 0.098007 0.62401 0.198-0.15601-0.704 1.544-0.61 2.092-0.68599 1.242-0.171 2.484-0.343 3.727-0.51502 1.825-0.252 3.65-0.502 5.475-0.75299-0.10899 0.45799-0.065994 1.097-0.375 1.441-0.451 0.50301-0.873 0.994-1.272 1.539-0.69699 0.95-1.289 1.925-1.843 2.964 0.67799 0 2.357 0.353 2.74-0.248 0.373-0.584 0.746-1.169 1.118-1.754 0.23401-0.368 0.505-1.066 0.85301-1.338 0.17099-0.134 0.39999-0.13501 0.567-0.283 0.14-0.12401 0.26099-0.408 0.36699-0.56 0.29001-0.418 0.565-0.827 0.76898-1.294 0.063019-0.144 0.272-0.90799 0.38702-0.927 0.36899-0.061996 0.73801-0.123 1.107-0.185 4.621-0.77 9.229-1.668 13.857-2.379 1.182-0.181 2.386-0.15601 3.566-0.36099 1.084-0.188 2.082-0.64201 3.046-1.172 0.79898 2.079 1.853 4.045 2.553 6.166 0.393 1.188 0.76602 2.368 1.098 3.574 0.18698 0.67999 0.070984 0.761 0.76099 0.761h2.003c-1.121-4.261-2.513-8.357-4.275-12.397-1.565-3.589-3.424-7.426-5.813-10.573-1.478-1.945-3.262-3.393-5.236-4.796 1.066-0.954 2.06-2.105 3.15-3.085h-3.727c-1.106 0-1.89 0.26399-2.961 0.608-1.926 0.61899-3.857 1.19-5.817 1.689-4.224 1.075-8.62 2.1-12.968 2.516-4.292 0.40999-8.551 0.70599-12.862 0.70599-4.175 0-8.354-0.268-12.502-0.73801-8.774-0.99399-17.454-2.399-26.053-4.418-1.407-0.33101-2.522-0.36301-3.971-0.36301h-22.349c2.339 3.667 3.764 7.581 4.288 11.906 0.059006 0.487 0.080002 1 0.16701 1.482 0.037003 0.205 0.105 0.412 0.164 0.612 0.054001 0.18399 0.377 0.68199 0.375 0.83099-0.006012 0.38701-0.74701 1.174-0.95802 1.504-0.28398 0.44701-0.55798 0.901-0.834 1.353-1.171 1.915-2.403 3.794-3.665 5.65-0.89 1.31-1.774 2.614-2.703 3.897-0.408 0.564-0.75 1.305-1.248 1.788-0.629 0.60899-1.258 1.218-1.888 1.827h3.183c0.17799 0 0.869 0.11 0.992-0.037994 0.297-0.356 0.59399-0.711 0.89099-1.067 1.199-1.434 2.359-2.88 3.477-4.387 1.028 1.275 1.961 2.575 2.838 3.958 0.27701 0.437 0.57001 1.533 1.116 1.533h2.715c-1.094-2.838-2.659-5.767-5.505-7.189 1.446-2.473 3.123-4.771 4.722-7.164 0.41699-0.62401 0.783-1.289 1.173-1.93 0.385-0.635 0.636-0.052994 1.154 0.229 1.316 0.715 2.628 1.262 4.047 1.734m24.292-7.698c1.003 0.211 2.002 0.463 3.008 0.65601 0.54599 0.105 1.092 0.20999 1.638 0.314 0.386 0.074005 1.484 0.063995 1.313 0.614 0.70201-0.12199 1.541 0.13701 2.242 0.227v-0.227c3.565 0.45401 7.133 0.89801 10.727 1.048 3.567 0.148 7.134 0.063004 10.698-0.085007-0.18201 0.533 1.223 0.13501 1.579 0.102 0.658-0.061996 1.285-0.020996 1.94 0.039993-0.048004-0.146-0.056-0.31099-0.114-0.45299 3.931-0.526 7.83-1.097 11.697-1.991 1.748-0.40399 3.468-0.875 5.199-1.347 1.952-0.532 4.067-0.72699 5.892-1.587v0.084991c0.784-0.34799 1.596-0.54399 2.44-0.679-0.37201-0.82799 0.95001-0.73299 1.447-1.02 0.426 0.77699 1.42 1.52 2.009 2.217 0.68701 0.813 1.363 1.632 1.993 2.491 1.268 1.728 2.393 3.538 3.43 5.412 0.54001 0.977 1.075 1.957 1.61 2.938 0.020996 0.039993-2.569 0.737-2.843 0.801-1.928 0.451-3.881 0.782-5.827 1.147-2.393 0.449-4.782 0.875-7.185 1.264-0.91602 0.14801-1.831 0.29302-2.747 0.43701-0.71399 0.112-1.429 0.22499-2.143 0.33699-0.551 0.087006-0.505-0.153-0.926-0.232-0.242-0.044998-0.68901 0.10899-0.86601 0.325-0.274 0.334-0.982 0.254-1.388 0.30101-1.049 0.12099-2.098 0.24399-3.148 0.35799-2.216 0.242-4.433 0.5-6.654 0.69-1.189 0.102-2.377 0.20401-3.566 0.30501-0.29398 0.024994-0.88898-0.507-1.191-0.649-0.463-0.217-0.957-0.408-1.447-0.552-2.061-0.605-4.287-0.7-6.421-0.74899-2.199-0.050003-4.331 0.40999-6.49 0.73299-2.064 0.30901-4.155 0.429-6.24 0.32201-4.323-0.22301-8.47-1.367-12.632-2.481-3.954-1.059-7.855-2.327-11.772-3.516-4.519-1.373-9.038-2.745-13.556-4.117 0.50099-0.948 0.96599-1.925 1.497-2.853 0.21899-0.38301 0.43001-0.80501 0.595-1.217 0.161-0.40199 0.285-1.146 0.575-1.449 0.642-0.66901 2.097-1.015 2.944-1.343 0.91402-0.353 1.862-0.727 2.818-0.94101 0.614-0.13798 1.228-0.27499 1.842-0.41299 0.32201-0.071991 0.82498 0.19099 1.13 0.27901 1.141 0.32599 2.278 0.66699 3.423 0.978 2.141 0.58099 4.28 1.164 6.427 1.72 2.344 0.607 4.692 1.185 7.043 1.76m58.117-4.133c-0.023987-0.183-0.19501-0.302-0.36801-0.396 0.27402-0.123 0.54901-0.24501 0.823-0.367-0.031982 0.183-0.005981 0.339 0.014008 0.523 0.022003 0.20801-0.285 0.155-0.46899 0.24"/>
  <path d="m120.65 150.33h-3.652c-0.701 0-1.415 1.235-1.846 1.758-1.426 1.73-2.794 3.486-4.11 5.301-2.575 3.552-4.776 7.341-6.74 11.259-2.01 4.007-3.573 8.232-4.821 12.532h1.774c0.563 0 0.506-0.127 0.693-0.64099 0.388-1.063 0.774-2.121 1.208-3.166 0.789-1.903 1.617-3.767 2.52-5.619 1.915-3.928 4.104-7.754 6.624-11.328 2.521-3.578 5.278-6.976 8.35-10.096"/>
  <path d="m158.34 185.17c-0.12199 0.089005-0.229 0.209-0.34 0.312 0.907 0.56201 1.768 1.158 2.611 1.811 0.68301 0.53 1.661 1.041 1.706 1.986 0.043991 0.922 0.98 1.37 0.84799 2.373-0.041 0.31099-0.50899 1.121-0.317 1.368 0.334 0.42999 0.82101 0.65799 1.283 0.93199 1.786 1.059 3.421 2.425 4.957 3.813 0.58501 0.53 1.825 1.415 1.825 2.225 0 0.444-0.12199 1.038 0 1.455 0.14 0.47899 0.72501 0.862 0.823 1.302 0.108 0.487-0.093994 1.157-0.17 1.642-1.942-0.936-3.392-2.318-5.682-2.127-0.353 0.030014-1.151 0.166-1.413 0.429-0.33299 0.33601-0.338 1.157-0.39 1.592-0.12199 1.037 0.106 1.876 0.58801 2.795-8.714 0.621-17.455 1.238-26.193 1.358-4.312 0.059998-8.625 0.11299-12.939 0.11299h-2.835c-0.52599 0-1.048 0.005005-1.577-0.013992-0.555-0.020004-0.697-0.311-1.109-0.644-1.708-1.379-3.354-2.872-4.922-4.409-2.984-2.924-5.946-5.883-8.571-9.143-1.385-1.719-2.743-3.448-4.021-5.249-0.688-0.97-1.368-1.939-2.025-2.93-0.328-0.494-0.501-0.55501-0.284-1.084 0.238-0.582 0.482-1.161 0.713-1.746 0.282-0.713 0.549-1.434 0.823-2.15h-1.774c-0.64101 0-0.523 0.19699-0.69701 0.81999-0.30199 1.083-0.601 2.156-0.85 3.251-0.137 0.60399-0.27399 1.208-0.412 1.813-0.066002 0.29401 0.674 1.087 0.838 1.333 0.531 0.79399 1.099 1.563 1.667 2.33 2.559 3.459 5.292 6.789 8.283 9.886 2.987 3.094 6.123 6.043 9.461 8.757 0.826 0.671 1.663 1.328 2.505 1.978 0.232 0.179 0.729 0.75 1.038 0.735 0.569-0.026001 1.139-0.053009 1.708-0.07901 2.353-0.10899 4.701-0.19699 7.056-0.258 8.53-0.21899 17.055-0.315 25.587-0.14 3.095 0.063004 6.185 0.16 9.278 0.271 0.48201 0.016998 0.923-0.177 1.372-0.347 0.793-0.3 0.99899-0.575 1.204-1.426 0.278-1.154 0.069-2.503 0.028-3.679 0.215 0.067001 1.249 0.242 1.249 0.537 0 0.567 0.373 0.955 0.855 1.114 0.73801 0.244 1.57 0.325 2.324 0.159 0.59799-0.131 0.922-0.215 1.171-0.774 0.21001-0.47299 0.394-0.944 0.56-1.433 0.311-0.918 0.513-1.851 0.511-2.83-9.92e-4 -0.506-0.097992-0.992-0.233-1.477-0.157-0.563-0.403-0.867-0.22099-1.411 0.162-0.48399 0.433-0.75499 0.407-1.309-0.018997-0.41701-0.20799-0.86801-0.319-1.273-0.108-0.394-0.771-0.37999-1.138-0.53099-0.479-0.19701-0.92799-0.485-1.362-0.76401-0.87199-0.55899-1.714-1.169-2.526-1.812-2.365-1.871-4.323-4.158-5.875-6.737-0.367-0.61-0.5-1.163-0.687-1.842-0.207-0.75 0.12199-1.181 0.718-1.625 1.257-0.936 2.391-2.098 3.46-3.238h-2.647c-0.94701 0-1.406-0.14101-2.104 0.518-1.256 1.184-2.533 2.331-3.824 3.473"/>
  <path d="m177.98 181.18h-2.952c1.745 3.946 2.838 7.952 2.838 12.297 0 0.51-0.014008 1.019-0.028 1.528-0.018997 0.69699-0.005005 0.896 0.25499 1.486 0.34001 0.77101-0.107 1.848 0.341 2.519 0.252 0.37799 0.569 0.72899 0.793 1.125 0.284 0.5 0.43201 0.67699 0.994 0.77199 1.043 0.17601 2.106 0.214 3.15 0.425 4.104 0.828 8.188 1.571 12.393 1.644 4.33 0.074005 8.585-0.317 12.835-1.135 2.064-0.397 4.096-0.845 6.207-0.88901 1.115-0.022995 2.212 0.02301 3.323 0.11601 0.57199 0.046997 2.538 0.097992 2.87 0.58699 1.175 1.725 2.508 3.328 4.017 4.772 1.299 1.243 3.033 2.934 4.952 1.981 1.713-0.85001 2.507-3.192 3.414-4.753 1.063-1.831 2.146-3.774 2.935-5.741 1.542-3.844 2.846-7.637 3.597-11.726 0.306-1.663 0.539-3.333 0.78101-5.006h-4.213c-0.23401 0-0.187 0.963-0.20601 1.174-0.157 1.757-0.39099 3.503-0.633 5.25-2.619-1.479-5.788-2.299-8.786-1.711-2.676 0.52499-5.997 1.419-7.73 3.721-0.293-0.694-0.315-1.642-0.388-2.397-0.10001-1.04-0.20001-2.079-0.298-3.119-0.091995-0.964-0.125-1.927-0.16501-2.894-0.001999-0.064011-2.392-0.02301-2.668-0.02301 0.028 2.902 0.14201 5.791 0.298 8.688 0.046997 0.865 0.094009 1.729 0.14101 2.594 0.029999 0.55501 0.41299 0.85501 0.41299 1.45 0 0.56999 0.716 1.453 0.993 1.956 0.35701 0.648 0.73801 1.284 1.106 1.925-4.175 0.427-8.286 1.292-12.457 1.716-4.363 0.44299-8.759 0.68599-13.142 0.38399-2.2-0.15099-4.396-0.30899-6.578-0.653-1.163-0.183-2.328-0.35399-3.486-0.56299-0.543-0.098999-1.081-0.201-1.619-0.32501-0.635-0.146-0.466-0.506-0.511-1.124-0.30899-4.191-0.776-8.335-1.8-12.421-0.30399-1.221-0.63199-2.424-0.98599-3.63m53.804 7.67c0.579 0.173 1.157 0.34799 1.731 0.537 0.28 0.091995 1.564 0.33099 1.674 0.56599 0.037994 0.080994-0.28101 0.92799-0.32201 1.084-0.161 0.612-0.33099 1.212-0.526 1.814-0.69499 2.136-1.759 4.257-2.245 6.441-0.62801-0.509-1.271-0.91701-1.995-1.278-0.629-0.31401-1.712-0.077011-2.392 0.016998-1.768 0.243-3.222 1.187-4.382 2.506-1.131-1.625-2.252-3.272-2.961-5.134-0.35001-0.922-0.58301-1.862-0.757-2.832-0.063004-0.35399-0.28101-0.937-0.142-1.261 0.082993-0.19499 0.739-0.7 0.938-0.842 3.372-2.385 7.469-2.733 11.379-1.618m-5.817 15.029c-0.11299-0.132-0.22699-0.26401-0.34-0.396 0.082993-0.063004 0.237-0.127 0.34-0.142v0.53799"/>
  <path d="m249.66 181.18c-0.974 1.887-1.956 3.758-3.176 5.499-1.145 1.632-2.837 3.088-3.196 5.125-0.33501 1.899 0.645 4.116 1.783 5.56 1.275 1.617 3.303 2.417 5.137 3.187 3.94 1.654 8.078 2.725 12.279 3.465 4.369 0.76999 8.815 0.76799 13.235 0.81599 3.757 0.041 7.916 0.615 11.367-1.151 0.31-0.159 0.577-0.40199 0.85199-0.59399 0.608-0.425 0.703-0.23601 1.361 0.119 0.98099 0.53 1.976 1.034 2.982 1.516 1.93 0.924 3.895 1.75 5.909 2.471 7.997 2.861 16.659 4.413 25.158 4.413 2.27 0 4.533-0.067993 6.802-0.14101 1.136-0.036987 2.275-0.018997 3.412-0.028 0.77698-0.005997 1.915-0.295 2.645-0.099991 1.847 0.496 4.199 1.063 6.105 0.586 1.961-0.49 3.66-0.966 5.447-1.966 0.336-0.188 0.19199-0.897 0.453-1.041 0.18799-0.104 1.234 0.218 1.504 0.269 1.018 0.19101 2.063 0.188 3.094 0.15601 2.049-0.063004 4.124-0.612 5.898-1.647 0.379-0.22099 0.767-0.40599 1.139-0.646 0.556-0.357 0.70999-0.442 0.73798-1.104 0.020996-0.49699 0.027008-0.998 0.027008-1.495 0-0.114 1.315-0.061996 1.506-0.061996 1.856 0 4.249-0.040009 5.957-0.793 1.815-0.8 1.452-2.683 1.268-4.341-0.22098-1.986-0.55899-4.124-1.282-5.999-1.615-4.186-4.165-7.384-8.443-9.021-0.14902-0.057999-0.16202-2.553-0.241-2.989-0.040009-0.22099-3.062-0.063995-3.475-0.063995 0.27399 0.76399 0.54999 1.528 0.824 2.292-0.435-0.284-0.85901-0.565-1.271-0.881-0.482-0.37-0.99698 0.057999-1.484 0.33299-0.91901 0.51701-1.744 1.116-2.512 1.841-0.38303 0.36101-0.70401 0.737-1.025 1.153-0.12698 0.164-1.043-0.44-1.217-0.579-1.067-0.854-1.64-0.567-2.752 0.056-1.857 1.042-3.24 2.671-4.089 4.604-0.215 0.489-0.37 0.991-0.53702 1.499-0.10599 0.327-0.063995 1.266-0.297 1.457-0.12299 0.102-1.179-0.022995-1.435 0.012009-0.51401 0.070999-1.006 0.189-1.474 0.41299-1.991 0.952-2.93 2.787-3.9 4.682-0.93799 1.835-1.77 3.762-2.347 5.745-0.28598 0.983-0.59497 1.973-0.78897 2.98-0.039001 0.2-0.15503 1.389-0.33502 1.398-0.70099 0.040009-1.403 0.080002-2.104 0.119-2.104 0.119-4.213 0.12-6.318 0.041-4.291-0.162-8.562-0.76199-12.789-1.498-4.295-0.74899-8.489-1.765-12.568-3.316-3.973-1.511-7.736-3.525-11.227-5.945-0.64902-0.45-0.22-1.907-0.22-2.624 0-1.145-0.063019-2.287-0.112-3.431-0.094025-2.172-0.42401-4.327-0.73502-6.476-0.155-1.069-0.40799-2.135-0.612-3.196-0.14398-0.75-0.09198-0.677-0.85001-0.677h-1.835c0.67401 3.282 0.95599 6.574 0.88901 9.922-0.029999 1.534-0.315 3.095-0.207 4.625 0.11798 1.673 0.85098 3.088 1.902 4.359-4.181 0.847-8.475 1.688-12.764 1.536-4.342-0.155-8.56-0.50101-12.823-1.391-2.052-0.42799-4.081-0.655-6.084-1.342-1.985-0.681-3.791-1.917-5.3-3.355-0.741-0.70698-1.438-1.534-1.984-2.399-0.276-0.43799-0.33-0.40001-0.088989-0.804 0.32199-0.54001 0.644-1.079 0.96501-1.619 1.231-2.064 2.459-4.131 3.703-6.188 0.685-1.133 1.415-2.234 2.138-3.343-0.86002-0.002991-1.721-0.002991-2.581-0.002991m106.56 4.981c0.49301 0.179 0.96701 0.34 1.447 0.34 0.16901 0 0.55002-0.355 0.595-0.31799 1.077 0.88 1.917 1.569 2.526 2.838 0.51102-0.47 0.849 0.338 1.155 0.703 0.35602 0.425 0.655 0.88699 0.96802 1.345 0.62399 0.914 1.104 1.906 1.573 2.905 0.84601 1.796 1.27 3.803 1.526 5.759 0.011993 0.087997 0.229 1.29 0.084991 1.323-0.53101 0.125-1.067 0.29198-1.61 0.35498-0.98502 0.11301-2.019 0.164-3.001 0.005997-0.68799-0.11-2.199-0.806-2.791-0.42998-0.332 0.21098-0.88098 0.46599-0.93597 0.88698-0.072021 0.56201-0.10501 1.097-0.091003 1.665 0.013 0.49699 0.049988 0.972-0.063019 1.461-0.062988 0.278-1.039 0.433-1.351 0.52498-0.88 0.25801-1.885 0.543-2.803 0.56401-0.995 0.021988-1.977 0.01799-2.963-0.11601-0.81097-0.11-2.081-0.687-2.787-0.18199-1.76 1.256-3.396 2.017-5.592 2.146-2.122 0.125-4.35-0.367-6.436-0.71298-0.55801-0.093018-1.115-0.19202-1.673-0.28801 0.47098-2.175 1.298-4.177 2.378-6.116 0.49799-0.896 1.057-1.758 1.679-2.573 0.19101-0.25099 1.745-2.328 2.039-2.182 0.97501 0.485 4.476 1.729 4.688-0.22501 0.10098-0.924-0.16-1.911-0.057007-2.873 0.11899-1.101 0.487-2.135 1.029-3.096 0.23502-0.41701 0.51001-0.877 0.84201-1.22 0.22299-0.229 0.44501-0.459 0.66699-0.68901 0.19202-0.19899 0.479 0.15401 0.67999 0.29002 0.87201 0.59299 1.877 0.98299 2.933 1.064 0.565 0.042999 1.104 0.00502 1.667-0.056992 0.53601-0.059006 0.85901-0.418 1.189-0.83701 0.33902-0.42999 0.66602-0.871 1.027-1.282 0.53-0.597 0.66901-0.979 1.461-0.979"/>
  <path d="m347.37 153.01c-0.42499-0.461-0.879-0.91499-1.257-1.417-0.29901-0.39801-0.664-1.272-1.198-1.272h-4.611c4.763 7.428 8.953 15.132 12.568 23.182 0.80698 1.795 1.513 3.634 2.241 5.462 0.16199 0.405 0.63498 2.207 0.926 2.207h3.335c-2.725-8.135-5.968-16.326-10.164-23.826-0.491-0.879-0.983-1.758-1.476-2.637-0.138-0.24701-0.27301-0.495-0.40601-0.745-0.16302-0.30801 0.17297-0.54302 0.041992-0.95401"/>
  <path d="m364.39 80.927c-1.899 3.84-3.844 7.676-5.235 11.731-1.263 3.678-2.985 7.396-5.314 10.525-0.64401 0.864-1.299 1.716-1.96 2.567-0.67099 0.864-1.364 1.583-2.132 2.372-0.68802 0.705-1.398 1.367-2.092 2.061-0.28799 0.288-0.944 0.688-1.089 1.057-0.18201 0.463 0.014984 1.377 0.019989 1.873 0.02301 2.152 0.17999 4.305 0.37701 6.448 0.082001 0.89101 0.51599 2.218 0.34198 3.086-0.17999 0.89899-1.307 0.58099-1.603-0.119-1.314-3.109-2.112-6.564-1.804-9.957-0.199 0.032997-0.84201 0.053001-0.992 0.198-0.16299 0.157-0.185 0.868-0.23099 1.09-0.13602 0.637-0.289 1.282-0.45801 1.91-0.17999 0.667-0.357 1.333-0.54901 1.997-0.202 0.697-0.487 1.209-0.77701 1.852-0.194-0.167-0.27499-0.522-0.47098-0.63799-0.058014-0.035004-0.461-0.229-0.46802-0.298-0.05899-0.626-0.14499-1.25-0.13199-1.879 0.027008-1.4 0.263-2.583 0.67401-3.92-0.37601-0.056-0.78802-0.089005-1.15-0.213-0.69998-0.24-0.841-0.488-1.26 0.139-0.47302 0.707-0.93701 1.416-1.432 2.108-1.063 1.488-2.357 2.818-3.65 4.108 0.232 0.142 0.81299 0.435 0.879 0.736 0.059998 0.273-0.263 0.887-0.332 1.194-0.18802 0.828-0.37802 1.658-0.52701 2.494-0.29999 1.685-0.59299 3.414-0.647 5.126-0.028992 0.909-0.053986 1.813-0.053986 2.722 0 0.742-0.134 1.816 0.13199 2.494 0.31 0.785 0.89499 1.249 1.468 1.861 0.63202 0.67601 1.252 1.357 1.863 2.052 0.845-1.61 4.266-1.023 5.7-1.125 2.188-0.15599 4.366-0.48799 6.475-1.116 4.04-1.205 7.472-3.262 10.759-5.886 3.33-2.658 6.598-5.361 9.805-8.16 0.83701-0.73 1.671-1.463 2.502-2.2 0.28-0.248 0.70099-0.778 1.111-0.787 0.60397-0.014 0.85599 0.658 1.49 0.41 1.007-0.394 1.948 0.017006 2.888 0.397 1.015 0.41 2.019 0.74 3.085 0.99 4.159 0.973 8.372 1.251 12.625 1.487 4.439 0.246 8.854 0.41801 13.285 0.035004 0.94299-0.082001 1.872-0.162 2.82-0.133 0.80603 0.025002 1.595 0.173 2.398 0.118 2.441-0.167 4.88-0.349 7.319-0.546 4.187-0.338 8.625-0.69601 12.648-1.952 0.591-0.185 1.182-0.369 1.772-0.553-8.669 0.277-17.295 0.097-25.926-0.813-1.641-0.173-3.135-0.245-4.598-1.062-0.095978-0.054001-0.646-0.544-0.689-0.514-0.39499 0.273-0.78799 0.547-1.183 0.821-0.21402 0.148-0.66302-0.336-0.85702-0.475-0.17999-0.128 0.10901-0.915 0.16302-1.089 0.44498-1.447 1.86-2.33 3.25-2.699 0.75998-0.202 1.2-0.16299 1.632 0.58 0.366 0.63-0.89999 1.244-1.333 1.599 0.71899 0.359 1.872 0.297 2.702 0.393 1.066 0.12199 2.13 0.23499 3.199 0.33099 2.316 0.208 4.621 0.358 6.945 0.44801 4.317 0.166 8.616 0.033997 12.926-0.242 2.154-0.138 4.307-0.357 6.448-0.631 0.44-0.056 0.88-0.111 1.319-0.172 0.50299-0.070999 1.469-0.008995 1.903-0.268 0.38498-0.229 0.63098-0.673 1.078-0.877 0.57797-0.264 0.69598-0.205 1.08-0.78 2.372-3.555 2.403-8.142 3.006-12.247 1.252-8.539 1.544-17.459 0.85599-26.059-0.164-2.044-0.39401-4.073-0.65399-6.107-0.083008-0.647-0.16602-1.294-0.24899-1.942-0.040009-0.312-0.77103-0.664-0.99701-0.835-0.814-0.616-1.681-1.17-2.599-1.615-3.963-1.921-8.389-2.661-12.694-3.429-8.509-1.519-17.146-1.212-25.648 0.098-4.378 0.675-8.674 1.61-12.968 2.692-4.195 1.056-8.514 2.243-12.507 3.919-1.438 0.604-2.812 1.356-4.138 2.18-1.414 0.878-2.38 1.911-3.345 3.251-1.706 2.373-3.283 5.007-4.2 7.788m68.361-12.566c-0.646-0.392-0.284-1.346 0.097992-1.763 0.276-0.301 1.103-0.378 1.431-0.363 1.289 0.060997 2.655 0.48 3.415 1.571 0.388 0.558 0.35501 1.258 0.31201 1.903-0.011017 0.153-0.038025 0.709-0.20401 0.803-0.15399 0.085999-1.006-0.328-1.191-0.388-1.351-0.439-2.607-1.109-3.861-1.763m-39.785 8.717c2.055-0.477 4.07-0.805 6.158-0.254 0.70599 0.187 2.377 0.653 2.752 1.358 0.17099 0.321-0.048004 0.723-0.057007 0.991-0.015015 0.47 0.15701 0.83501-0.23999 1.261-1.308 1.399-2.611 2.473-4.641 2.093-0.94702-0.178-1.771-0.69999-2.611-1.149-0.926-0.49499-1.734-0.419-2.725-0.309-0.612 0.068001-0.893-0.407-1.401-0.18599-0.577 0.25099-1.146 0.49099-1.695 0.79699-0.54001 0.30001-1.034 0.783-1.614 0.295-0.30499-0.256-0.52298-0.879-0.198-1.218 1.73-1.804 3.872-3.006 6.272-3.679" fill="#690"/>
  <path d="m432.5 68.106c0.38998 0.5 1.171 0.74699 1.732 1.014 0.715 0.34 1.422 0.64 2.161 0.925 0.431 0.166 1.432 0.765 1.541 0.137 0.116-0.667 0.21201-1.437-0.078979-2.071-0.574-1.255-1.881-1.628-3.143-1.817-0.65802-0.098999-0.89401 0.011002-1.455 0.161-0.883 0.234-0.82599 0.878-0.75699 1.651"/>
  <path d="m394.56 76.739c-2.055 0.395-4.115 1.014-5.83 2.266-0.573 0.418-2.172 1.335-2.172 2.145 0 0.443 0.16598 0.799 0.59598 0.967 0.582 0.228 1.137-0.313 1.646-0.597 0.449-0.25 0.93701-0.432 1.407-0.63699 0.478-0.208 0.74399 0.186 1.306 0.186 0.94601 0 1.746-0.266 2.665 0.226 1.635 0.874 3.29 1.807 5.149 1.02 0.806-0.341 1.945-1.219 2.343-2.013 0.24399-0.487 0.151-0.863 0.22699-1.299 0.089996-0.523 0-0.914-0.483-1.203-1.944-1.164-4.642-1.691-6.854-1.061"/>
  <g fill="#093">
   <path d="m332.44 133.74c-0.024994 0.259 0.040009 0.49701 0.25601 0.65001-0.085022-0.21701-0.17102-0.43301-0.25601-0.65001"/>
   <path d="m350.66 107.19c0.20099-0.178 0.47299-0.337 0.56799-0.594-0.189 0.198-0.379 0.396-0.56799 0.594"/>
  </g>
  <path d="m371.63 118.68c-3.246 2.875-6.46 5.775-9.872 8.455-3.351 2.632-6.484 5.296-10.377 7.1-3.872 1.792-8.139 2.313-12.362 2.412-0.89502 0.021011-1.91-0.011993-2.675 0.52101-0.48498 0.338-0.64298 0.433-0.24799 0.88699 0.393 0.452 0.80301 0.895 1.18 1.359 1.418 1.747 2.783 3.521 4.113 5.335 0.21899 0.299 0.94199-0.289 1.234-0.438 0.41199-0.211 0.867-0.35399 1.295-0.532 0.96002-0.40199 1.914-0.826 2.884-1.206 2.062-0.81 3.967-1.69 5.88-2.811 3.62-2.122 7.039-4.482 10.205-7.243 2.104-1.835 4.09-3.949 5.748-6.192 0.88501-1.197 1.875-2.42 2.569-3.74 0.32999-0.62699 0.99799-1.345 1.191-2.01 0.082001-0.281-0.11902-0.698 0-0.96301 0.13498-0.29799 0.64298-0.50999 0.90799-0.64999-0.48102-0.241-1.212-0.815-1.673-0.284" fill="#360"/>
  <path d="m409.63 121.71c-2.444-0.222-4.856 0.101-7.293 0.312 2.63-0.076004 5.259-0.161 7.889-0.255-0.198-0.026001-0.39499-0.037994-0.59601-0.056999" fill="#093"/>
  <path d="m310.62 81.494c-2.851-3.147-5.692-6.304-8.553-9.443-3.061-3.359-6.378-6.595-9.163-10.189-2.38-3.071-6.46-6.025-10.55-4.629-1.921 0.656-3.909 1.683-5.408 3.074-1.56 1.445-3.231 2.779-4.77 4.241-1.516 1.441-3.06 2.974-4.268 4.691-0.604 0.858-1.25 1.715-1.771 2.628-0.26099 0.456-0.62399 0.929-0.81 1.419-0.17899 0.473-0.23599 0.917-0.49301 1.373-2.063 3.653-2.352 8.103-0.89298 12.07 0.228 0.61601 0.49698 1.189 0.784 1.781 0.19199 0.398 0.51398 0.806 0.40298 1.249-0.061981 0.246-0.604 1.028-0.565 1.133 0.20902 0.56 0.38602 1.147 0.63202 1.692 1.044 2.307 2.245 4.447 3.622 6.572-0.37399-1.234-0.75598-2.466-1.105-3.708 1.936 3.73 4.358 7.336 7.277 10.376 0.81003 0.842 1.616 1.671 2.488 2.447 0.81799 0.729 1.777 1.248 2.578 2 0.768 0.71999 1.68 1.216 2.455 1.903 0.806 0.715 1.71 1.212 2.697 1.629 1.873 0.791 4.197 0.554 6.185 0.508 2.13-0.048996 4.172-0.478 6.172-1.203 4.039-1.465 7.752-3.837 11.254-6.293 1.555-1.09 3.215-2.297 4.528-3.674 1.122-1.178 2.44-2.447 3.222-3.869 1.027-1.868 1.854-3.691 1.854-5.863 0-2.147-1.082-4.103-2.465-5.679-1.801-2.056-3.555-4.159-5.337-6.236" fill="#7f3f00"/>
  <path d="m323.27 107.5c-0.53702-0.28799-1.497-0.571-1.9-1.019-0.401-0.446-0.595-1.358-0.81601-1.937-0.55801-1.458-1.089-2.917-1.568-4.403-2.262 3.608-5.151 6.375-8.546 8.913-3.307 2.472-7.169 4.801-11.093 6.146-2.072 0.71-4.131 1.357-6.261 1.872-2.095 0.506-4.231 0.734-6.366 0.985-0.89697 0.105-2.069 0.347-2.956 0.157-1.017-0.218-1.818-0.952-2.636-1.555-1.65-1.22-3.195-2.63-4.563-4.16-1.436-1.604-2.693-3.307-3.84-5.128-1.087-1.725-1.909-3.608-2.906-5.386-0.50497-0.899-0.56299-1.917-1.005-2.834-0.46701-0.971-1.22-1.916-1.778-2.844-1.043-1.734-1.803-3.615-2.507-5.505-1.123 0.52-1.422-0.784-1.787-1.613-0.44998-1.023-0.771-2.084-1.103-3.15-0.621-2-0.85098-4.152-0.918-6.235-0.016998-0.516-0.022003-1.03-0.022003-1.546 0-0.38-0.069977-1.163 0.057007-1.522 0.15201-0.431 0.70099-0.666 0.81-1.118 0.063019-0.258 0.11301-0.494 0.22702-0.733 0.048981-0.101 0.16898-0.271 0.185-0.385 0.011993-0.083-0.23102-0.188-0.18802-0.279 0.95401-1.942 2.078-3.717 3.288-5.506 1.802-2.663 4.006-5.101 6.395-7.25 2.29-2.061 4.939-4.288 7.759-5.587-4.738-6.348-10.793-11.303-17.907-14.774-0.815 1.913-1.644 3.795-2.724 5.576-0.54999 0.906-1.132 1.786-1.731 2.66-0.54202 0.791-1.307 1.391-1.781 2.229-1.941 3.431-4.588 6.346-8.293 7.904-1.779 0.748-3.635 1.17-5.531 1.485-1.978 0.329-4.028 0.218-5.969 0.789-4.348 1.28-8.676 2.333-13.146 3.09-8.069 1.368-16.862 0.906-24.788-1.07-3.668-0.915-7.185-2.067-10.723-3.395-3.304-1.24-5.979-3.613-8.177-6.306-6.126 5.729-11.436 12.288-15.268 19.784 3.825 1.765 7.559 3.888 10.621 6.827 0.854 0.819 1.692 1.643 2.514 2.493 0.70201 0.727 0.52501 1.759 0.593 2.744 0.153 2.199 0.28 4.429 0.151 6.631-0.12599 2.15-0.218 4.287-0.433 6.434-0.21201 2.114-0.686 4.219-1.159 6.287-0.466 2.039-1.013 4.07-1.704 6.045-0.7 2.005-1.618 4.014-2.106 6.081-0.15601 0.657-0.31201 1.315-0.46701 1.973-0.11899 0.503-0.405 0.799-0.724 1.213-0.62399 0.811-1.03 1.859-1.366 2.812-0.142 0.40399-0.162 0.811-0.608 0.72399-0.62599-0.12199-1.251-0.25099-1.879-0.36499-1.048-0.19101-2.102-0.359-3.153-0.536-4.236-0.714-8.507-1.124-12.783-1.502-3.435-0.30399-6.868-0.42599-10.314-0.49099-1.63-0.030998-3.264-0.083-4.895-0.042-0.58099 0.014999-1.162 0.028999-1.743 0.043999-0.44 0.011002-0.59999-0.23-0.944-0.517-0.517-0.43-0.625-1.404-0.987-1.995-0.938 1.415-2.174 2.915-3.468 4.021-1.594 1.361-3.22 2.335-5.13 3.169 3.093 0.594 6.157 1.109 9.309 1.264 2.989 0.147 6.195-0.495 8.825 1.254-3.988 0.924-8.41 1.716-12.517 1.185-2.091-0.271-4.213-0.506-6.249-1.081-2.028-0.573-4.318-1.151-6.119-2.275-1.635-1.019-4.047-1.155-5.962-1.211-0.918-0.027-2.249-0.197-3.065 0.269-0.377 0.215-0.639 0.583-0.865 0.94801-0.301 0.48299-0.809 0.56599-1.143 1.065-0.514 0.77-0.561 1.915-0.304 2.792 0.151 0.51601 0.269 0.972 0.269 1.512 0 0.342 0.587 0.95 0.794 1.211 1.304 1.643 2.892 2.989 4.723 4.009 3.617 2.014 7.984 2.182 12.104 2.243 1.915 0.028 4.096-0.072998 5.891-0.789 1.974-0.78801 4.271-0.996 6.354-1.436 1.076-0.228 2.05-0.507 3.09-0.845 1.011-0.328 1.989-0.418 3.027-0.577 2.154-0.33101 4.229-1.143 6.412-1.298 4.188-0.299 8.461 0.147 12.462 1.449 3.968 1.292 8.02 3.163 11.075 6.068 1.624 1.544 3.213 2.889 5.128 4.067 1.743 1.072 3.837 1.732 5.815 2.196 0.98099 0.23001 2.031 0.513 3.037 0.59401 0.785 0.062988 1.524-0.083008 2.293 0.121 2.32 0.61699 4.639 1.226 6.967 1.81 4.023 1.01 8.104 1.925 12.197 2.602 8.85 1.463 17.745 2.674 26.728 2.766 8.336 0.084991 16.888-0.748 24.962-2.889 2.182-0.57799 4.361-1.157 6.509-1.854 0.92801-0.30101 1.855-0.59601 2.781-0.901 0.375-0.12401 1.02-0.491 1.419-0.425 0.224 0.037003 0.199 0.194 0.36401 0 0.25497-0.298 0.509-0.597 0.76398-0.896 2.844-3.333 6.026-6.335 9.438-9.076 6.609-5.31 14.311-9.081 22.366-11.621 3.354-1.058 6.736-1.86 10.192-2.507 2.985-0.55901 5.828 0.735 7.899 2.802 2.785-2.836 5.563-5.677 8.046-8.787 1.385-1.733 2.753-3.461 4.074-5.244 1.146-1.548 2.176-3.208 3.487-4.621-2.394-0.75399-4.753-1.547-7.079-2.49-0.44998-0.183-0.896-0.366-1.34-0.564-0.414-0.186-1.583-0.987-2.024-0.908-0.24902 0.044991-0.71701 0.771-0.884 0.938-0.34201 0.337-0.79602 0.461-1.19 0.73m-28.008 14.264c-0.15201 0.383-0.905 0.354-1.256 0.422-0.62598 0.123-1.253 0.246-1.879 0.368-1.004 0.196-1.986 0.51-2.967 0.795-1.976 0.574-3.94 1.221-5.831 2.037-2.096 0.904-4.137 1.863-6.153 2.934-1.786 0.948-3.705 2.095-5.213 3.436-0.26398 0.23401-0.659 0.699-0.97897 0.453-0.522-0.39999-0.57501-0.491-0.17401-1.075 0.599-0.87 1.266-1.813 2.061-2.516 1.728-1.526 3.495-2.675 5.642-3.523 3.913-1.546 7.96-2.857 12.04-3.889 1.462-0.37 3.135-1.032 4.629-0.819 0.77698 0.111 1.559 0.143 2.343 0.107 0.72501-0.033005 1.421-0.271 2.137-0.314-0.65399 0.543-1.374 0.87-2.213 1.02-0.53101 0.092995-2.035-0.093002-2.187 0.564m-87.858-41.492c0.38 0.101 1.106 0.463 1.479 0.339 0.407-0.135 0.707-0.132 1.121-0.088997 1.446 0.15 2.891 0.29999 4.337 0.45 2.04 0.211 4.085 0.376 6.128 0.556 2.084 0.183 4.173 0.332 6.261 0.471 2.177 0.145 4.419 0.433 6.598 0.285 2.102-0.143 4.366 0.361 6.31 1.182 1.811 0.764 3.052 2.27 4.018 3.92 2.309 3.941 4.323 7.966 6.077 12.184 3.379 8.124 5.181 16.75 6.015 25.481 0.369 3.87 0.85899 8.163-1.179 11.63-2.084 3.546-6.499 4.782-10.168 6.003-7.993 2.659-16.653 3.944-25.079 3.477-8.575-0.476-17.252-2.101-25.146-5.567-3.896-1.711-7.468-3.974-10.839-6.556-0.812-0.62201-1.595-1.311-2.351-1.999-0.273-0.24899-0.99-0.70799-1.107-1.048-0.12201-0.353 0.12401-1.127 0.164-1.492 0.248-2.256 0.571-4.488 0.91301-6.732 1.289-8.468 3.639-16.697 6.349-24.805 0.72-2.152 1.495-4.283 2.269-6.416 0.38998-1.076 0.81-2.138 1.228-3.203 0.33101-0.843 1.12-1.562 1.765-2.184 3.023-2.914 7.036-5.045 11.25-5.534 0.48601-0.056 3.522-0.121 3.587-0.353" fill="#007f00"/>
  <path d="m295.15 121.97c0.39401-0.83601 1.388-0.663 2.219-0.755 0.85602-0.095001 1.639-0.485 2.293-1.028-0.949 0.057999-1.854 0.378-2.825 0.334-1.079-0.048996-2.074-0.294-3.125-0.063995-2.278 0.49799-4.512 1.137-6.755 1.771-3.958 1.12-8.191 2.361-11.719 4.511-1.686 1.027-3.559 2.734-4.488 4.502-0.341 0.64999-0.194 0.646 0.362 1.073 0.15399 0.119 0.83499-0.534 1.002-0.69 0.827-0.76999 1.919-1.335 2.858-1.957 3.456-2.286 7.402-4.082 11.323-5.413 2.911-0.989 5.841-1.693 8.855-2.284"/>
  <path d="m212.4 82.173c-2.084 0.235-4.139 0.591-6.205 0.952-1.064 0.186-2.129 0.367-3.188 0.582-0.998 0.202-2.4 0.286-3.32 0.73-0.90701 0.438-1.792 1.379-2.555 2.034-0.72398 0.621-1.436 1.261-2.104 1.941-0.32399 0.32999-0.98799 0.751-0.98799 1.236 0 0.452 0.054993 0.882-0.117 1.302-0.431 1.053-0.882 2.1-1.292 3.161-3.168 8.201-6.1 16.55-8.168 25.105-0.54399 2.249-0.87199 4.488-1.131 6.787-0.04599 0.409-0.039993 0.825-0.052994 1.236-0.012009 0.351-0.22 1.262 0.01799 1.543 0.68201 0.808 1.354 1.604 2.168 2.287 3.342 2.805 6.936 5.122 11.05 6.622 1.979 0.722 3.882 1.469 5.927 2.021 2.038 0.551 4.081 1.045 6.156 1.436 4.22 0.79401 8.49 1.244 12.785 1.327 8.561 0.16499 16.974-1.574 25.032-4.357 2.053-0.709 3.886-1.755 5.58-3.108 0.338-0.26999 0.92799-0.59999 1.074-1.016 0.168-0.479-0.084991-1.421-0.11499-1.929-0.057999-0.959-0.13-1.923-0.23401-2.878-0.48399-4.454-1.228-8.83-2.214-13.2-1.877-8.321-5.032-16.577-9.135-24.053-0.509-0.928-1.007-1.864-1.533-2.784-0.416-0.729-0.89099-2.33-1.763-2.492-2.392-0.444-4.78-0.86-7.183-1.243-1.907-0.304-3.812-0.632-5.727-0.884-1.104-0.146-2.5-0.096001-3.542-0.528-0.31599-0.131-1.003-0.417-0.795-0.775 0.295-0.508 0.82001-0.46899 1.396-0.49799 3.431-0.171 6.867-0.264 10.3-0.389-3.891-0.229-7.786-0.435-11.668-0.777-1.915-0.16901-3.835-0.313-5.747-0.511-1.231-0.128-2.462-0.255-3.693-0.383-0.83699-0.086998-1.803-0.358-2.615-0.028 1.029 0.308 2.965 0.572 3.599 1.531" fill="#7f3f00"/>
  <path d="m199.69 84.437c4.177-0.989 8.447-1.782 12.713-2.264-0.414-0.625-1.426-0.885-2.102-1.084-0.961-0.284-1.923-0.555-2.893-0.812-0.067001 0.24-2.348 0.209-2.761 0.257-1.103 0.12801-2.208 0.31-3.284 0.592-2.048 0.537-3.961 1.477-5.756 2.582-0.85001 0.524-1.72 1.183-2.439 1.876-0.74399 0.717-1.696 1.488-2.22 2.391-0.48999 0.843-0.771 1.915-1.105 2.836-0.371 1.022-0.741 2.043-1.112 3.065-2.933 8.085-5.602 16.417-7.08 24.908-0.403 2.317-0.79199 4.632-1.146 6.958-0.142 0.93301-0.252 1.863-0.355 2.802-0.076004 0.68999-0.15201 1.38-0.228 2.07-0.061005 0.549 0.23599 0.644 0.648 1.035 3.075 2.911 6.607 5.329 10.323 7.342 7.425 4.021 16.098 6.115 24.468 6.888 8.48 0.784 17.082 0.18401 25.31-2.071 2.137-0.58499 4.238-1.263 6.324-2.011 1.915-0.687 3.8-1.442 5.417-2.706 1.565-1.223 2.42-2.753 3.171-4.556 0.76-1.824 0.429-4.227 0.358-6.128-0.32901-8.775-2.123-17.362-4.979-25.648-1.371-3.977-3.13-7.914-5.16-11.597-1.049-1.903-2.023-3.956-3.414-5.634-1.327-1.602-3.114-2.263-5.064-2.741-1.242-0.304-2.25-0.55901-3.521-0.53101-0.74901 0.017006-1.502 0.094002-2.252 0.121-2.716 0.098999-5.431 0.198-8.146 0.297-0.57399 0.020996-2.189-0.12-2.488 0.395-0.268 0.461 0.054993 0.666 0.539 0.866 0.422 0.175 0.847 0.219 1.297 0.278 2.417 0.318 4.821 0.674 7.229 1.058 1.949 0.31 3.899 0.60899 5.84 0.96899 0.92799 0.172 2.388 0.066002 2.883 0.932 0.548 0.96001 1.101 1.917 1.633 2.886 2.106 3.836 4.195 7.78 5.727 11.889 3.032 8.134 5.483 16.485 6.425 25.146 0.24899 2.292 0.438 4.579 0.576 6.88 0.030991 0.519-1.781 1.583-2.2 1.888-0.83701 0.60901-1.751 1.15-2.703 1.562-3.878 1.676-8.054 2.738-12.168 3.641-8.302 1.822-17.063 1.834-25.429 0.442-8.467-1.408-16.845-3.956-23.702-9.273-0.81599-0.633-1.574-1.326-2.322-2.036-0.353-0.33501-0.65201-0.71101-0.966-1.083-0.41-0.48599-0.338-0.655-0.31599-1.308 0.074997-2.242 0.37999-4.426 0.733-6.64 0.32199-2.018 0.96399-4.135 1.54-6.09 0.668-2.271 1.353-4.534 2.06-6.792 1.26-4.026 2.661-8.016 4.182-11.951 0.37999-0.983 0.754-1.97 1.153-2.946 0.433-1.057 1.115-2.164 1.115-3.317 0-0.708 0.104-0.756 0.60101-1.262 0.35899-0.367 0.715-0.731 1.094-1.078 0.802-0.734 1.602-1.479 2.449-2.161 0.48698-0.393 1.003-0.755 1.503-1.132"/>
  <path d="m253.07 134.11c-0.024002-0.003006-9.92e-4 -0.17801-0.114 0.084991 0.037994-0.028 0.075989-0.056992 0.114-0.084991" fill="#093"/>
  <path d="m141.37 135.44c-1.52 0.112-2.924 0.49301-4.342 1.047 1.45-0.342 2.888-0.73 4.342-1.047" fill="#690"/>
  <path d="m330.2 122.16c-1.769 2.282-3.561 4.529-5.422 6.736 1.435 0.714 2.765 1.544 4.115 2.405 0.362-0.615 0.14999-1.74 0.168-2.432 0.019012-0.75499 0.14999-1.521 0.229-2.272 0.155-1.502 0.55301-2.976 0.91-4.437" fill="#060"/>
  <path d="m328.89 131.31c0.037994 0.028 0.075012 0.057007 0.11301 0.085007 0.009979-0.104 0.020996-0.237 0-0.34001-0.037018 0.085007-0.083008 0.168-0.11301 0.255" fill="#093"/>
  <path d="m315.41 132.75c0.40601-0.33 0.81302-0.66 1.219-0.99-4.239 0.27501-8.571 0.78601-12.655 2.007-4.27 1.276-8.511 2.532-12.657 4.169-0.97302 0.384-1.902 0.83-2.838 1.296 1.11 1.952-1.076 3.78-2.065 5.255-1.128 1.683-1.15 4.028-1.474 5.961-0.19299 1.155-0.22598 1.943-0.10599 3.099 0.11798 1.147 0.25198 2.293 0.35498 3.442 0.19101 2.121 0.40002 4.24 0.54501 6.365 0.164 2.417 0.30701 4.83 0.42899 7.249 0.02301 0.48401 0.048004 0.96701 0.072021 1.451 0.018982 0.375 0.396 0.892 0.51401 1.256 0.29398 0.903 0.45999 1.937 0.42398 2.887-0.07901 2.06-0.43201 4.106-0.62201 6.16-0.18198 1.961 0.026001 4.204-0.62399 6.067-0.34 0.974-0.082001 2.041-0.001007 3.066 0.039001 0.508 0.044006 1.022 0.06601 1.531 0.014008 0.32001 0.027008 0.64 0.041016 0.959 0.009003 0.205 0.19098 0.345 0.20398 0.528 0.026001 0.377-0.27499 0.957-0.30399 1.369-0.026001 0.382-0.03302 1.168 0.16299 1.518 0.34399 0.612 1.687 1.249 2.289 1.607 3.642 2.169 7.493 4.198 11.569 5.43 4.101 1.239 8.259 2.215 12.505 2.815 4.271 0.604 8.59 1.237 12.918 1.156 1.061-0.020004 2.127-0.009003 3.187-0.069 0.70001-0.039993 1.4-0.078995 2.101-0.119 0.73901-0.041992 0.66-0.007996 0.80499-0.75099 0.38901-2.007 0.95599-3.981 1.699-5.886 1.363-3.499 3.318-8.933 7.909-8.655 0.67502 0.041 0.522-0.257 0.646-0.90201 0.089996-0.466 0.241-0.90199 0.39002-1.354 0.27701-0.847 0.668-1.685 1.21-2.393 0.54599-0.711 1.087-1.311 1.762-1.905 0.686-0.604 1.692-1.396 2.591-1.626 0.87601-0.22499 1.396 0.63 2.109 0.94501 0.729 0.323 0.59 0.22499 1.098-0.351 0.32199-0.364 0.707-0.73201 1.078-1.047 0.72101-0.61099 1.508-1.085 2.327-1.546 0.436-0.246 0.763-0.46901 1.17-0.15601 0.41098 0.31601 0.836 0.597 1.271 0.881-0.40302-1.145-0.80701-2.289-1.21-3.434-0.12003-0.34201-0.60001-0.353-0.67502-0.59401-0.16498-0.532-0.32898-1.064-0.49399-1.597-0.71301-2.302-1.509-4.389-2.496-6.588-1.766-3.931-3.759-7.776-5.867-11.534-4.188-7.466-8.799-14.98-15.076-20.892-2.063-1.941-4.211-3.788-6.534-5.411-1.187-0.82901-2.549-1.318-4.019-1.318-1.198 0-2.77 0.080002-3.729 0.905-0.065002-0.26399-0.926-0.222-1.22-0.256" fill="#690"/>
  <g fill="#093">
   <path d="m322.54 131.96c-0.48801 0.037994-0.965 0.061996-1.447 0.142 0.785 0.217 1.57 0.43401 2.355 0.64999-0.32599-0.25198-0.61697-0.50099-0.90799-0.79199"/>
   <path d="m322.54 131.96c-0.20801-0.23801-0.29001-0.597-0.65399-0.368 0.21701 0.12201 0.436 0.24501 0.65399 0.368"/>
   <path d="m354.86 179.48c0.18799 0.094009 0.37799 0.188 0.56601 0.282-0.69601-1.747-1.396-3.492-2.1-5.235 0.51099 1.651 1.023 3.302 1.534 4.953"/>
  </g>
  <path d="m287.4 143.19c0.591-0.772 1.323-1.678 1.391-2.689 0.016022-0.239-0.015991-1.161-0.31299-1.273-0.24799-0.093994-1.421 0.68401-1.667 0.802-1.891 0.91-3.751 2.021-5.513 3.161-3.733 2.414-7.191 5.242-10.358 8.355-0.258 0.254-1.731 1.917-1.245 2.251 0.91199 0.62601 1.741 1.294 2.552 2.047 1.478 1.372 2.73 3.021 3.724 4.773 2.114 3.732 4 7.506 5.593 11.477 2.187 5.449 3.399 11.061 4.163 16.862 0.085022-0.358 0.23001-0.718 0.367-1.06 0.16101-0.403 0.11801-0.959 0.185-1.393 0.155-1.01 0.07901-2.074 0.17401-3.097 0.19998-2.154 0.54098-4.309 0.689-6.463 0.069-1.005 0.003998-2.006-0.224-2.989-0.194-0.84-0.66602-1.562-0.70902-2.42-0.11798-2.346-0.23798-4.689-0.39697-7.033-0.26001-3.834-0.63702-7.655-1.032-11.477-0.17999-1.737 0.31-3.491 0.57901-5.212 0.272-1.744 0.80899-3.315 2.041-4.622" fill="#360"/>
  <path d="m269.38 153.16c-0.091003 0.056-0.17899 0.179-0.25598 0.255 0.062988 0.069 0.19699 0.168 0.284 0.198 0.040985-0.217 0.078003-0.43401 0.11298-0.651-0.108 0.048996-0.097992 0.107-0.14099 0.198" fill="#093"/>
  <path d="m269.53 152.96c-0.049011 0.30499-0.25101 0.69699 0.142 0.821-0.024017-0.73401 0.51898-1.292 0.90799-1.868-0.35001 0.349-0.70099 0.69701-1.05 1.047" fill="#690"/>
  <g fill="#360">
   <path d="m285.99 196.8c0 0.278-0.097992 0.562 0.17001 0.707-0.103-0.22-0.12402-0.467-0.17001-0.707"/>
   <path d="m286.24 194.51c-0.050995-0.127-0.133-0.248-0.19699-0.368v1.104c0.014984-0.254 0.074982-0.511 0.19699-0.73601"/>
  </g>
  <path d="m334.14 206.28c-0.046997 0.21701-0.093994 0.43401-0.14099 0.65001 2.197 0.37799 4.387 0.718 6.603 0.968 1.726 0.194 4.313 0.014999 5.713-1.152 0.62-0.517 1.506-1.279 2.333-1.11 0.98999 0.202 1.988 0.268 2.974 0.43201 1.941 0.32399 3.922-0.554 5.703-1.217 0.54001-0.20099 0.371-0.733 0.34399-1.257-0.027008-0.52301-0.001007-1.035 0.065002-1.553 0.065002-0.50099 0.39499-0.701 0.80801-0.963 0.51898-0.329 0.849-0.127 1.4 0.009995 0.97598 0.24301 1.924 0.40901 2.932 0.40901 0.479 0 0.95599-0.016006 1.433-0.070999 0.603-0.069 1.092-0.438 1.621-0.72801 0.457-0.25099-0.063995-2.145-0.18399-2.698-0.22-1.028-0.52301-2.03-0.85501-3.027-0.66501-2.002-1.842-3.938-3.192-5.547-0.28201-0.33701-0.46301-0.82001-0.909-0.41-0.47302-0.98401-0.974-1.568-1.819-2.26-0.254-0.20799-0.672-0.79199-0.90402-0.444-0.080994 0.12201-0.41098 0.203-0.53998 0.21201-0.479 0.035004-0.91302-0.368-1.366-0.368-0.742 0-0.90701 0.424-1.396 0.979-0.48898 0.55699-1.23 2.011-2.032 2.099-1.052 0.11699-2.057 0.16199-3.079-0.16301-0.47-0.149-0.91101-0.338-1.333-0.59399-0.21799-0.132-0.42798-0.268-0.63898-0.411-0.37601-0.25601-0.32901-0.196-0.64401 0.12999-1.506 1.555-2.364 3.566-2.364 5.739 0 0.642 0.31897 1.556 0.084991 2.141-0.25601 0.64-1.117 0.77899-1.755 0.77899-0.711 0-1.463-0.074997-2.115-0.40099-0.207-0.104-0.75702-0.505-0.92001-0.34201-0.32501 0.325-0.70001 0.634-0.98898 0.992-2.247 2.779-3.86 5.733-4.838 9.176" fill="#690"/>
  <g fill="#093">
   <path d="m357.67 204.72c-1.349 0.502-2.729 0.883-4.086 1.358 0.68799-0.241 4.159-0.392 4.086-1.358"/>
   <path d="m364.68 201.38c0.604-0.142 1.526-0.048004 1.447-0.793-0.482 0.26399-0.96399 0.52899-1.447 0.793"/>
  </g>
  <path d="m257.81 36.464c-8.089-3.377-16.463-5.495-25.228-6.057-4.223-0.271-8.495-0.264-12.706 0.174-4.249 0.442-8.509 0.878-12.682 1.823-4.212 0.953-8.367 2.183-12.354 3.854-4.047 1.696-7.767 3.819-11.523 6.065-0.89601 0.536-1.562 1.373-2.271 2.117-0.68199 0.716-1.36 1.746-1.36 2.742 0 1.085 0.155 1.719 0.899 2.553 0.717 0.805 1.466 1.577 2.265 2.301 0.786 0.712 1.586 1.533 2.539 2.003 0.375 0.186 1.008 0.319 1.306 0.595 0.174 0.161 0.18201 0.501 0.34 0.679 0.18501 0.208 0.54701 0.36 0.77901 0.512 1.784 1.172 3.727 2.134 5.701 2.937 7.959 3.239 16.497 2.713 24.842 1.778 8.62-0.966 17.21-2.451 25.617-4.601 0.72899-0.186 1.457-0.373 2.186-0.559 0.285-0.073002 0.893-0.101 1.097-0.333 0.78601-0.896 1.576-1.787 2.377-2.669 1.228-1.353 2.422-2.779 3.442-4.304 0.552-0.825 1.126-1.602 1.689-2.421 0.60199-0.875 1.318-1.513 1.639-2.539 0.267-0.851 0.24399-1.792 0.49301-2.653 0.28799-0.992 1-2 1.126-3.008 0.042023-0.338-0.067993-0.685-0.21298-0.989" fill="#7f3f00"/>
  <g fill="#093">
   <path d="m179.62 47.898c-0.16501 0.693-0.018997 0.735 0.454 1.274-0.189-0.415-0.395-0.817-0.454-1.274"/>
   <path d="m186.69 54.634c-0.56-0.252-1.116-0.509-1.674-0.764 0.661 0.504 1.326 0.979 2.015 1.443-0.114-0.226-0.228-0.452-0.341-0.679"/>
  </g>
  <path d="m166.8 79.484c-2.924-2.308-8.102-3.637-11.418-1.388-1.816 1.231-3.287 3.102-4.752 4.724-1.319 1.46-2.563 3-3.754 4.565-1.353 1.775-2.65 3.576-3.88 5.439-0.632 0.958-1.215 1.934-1.8 2.921-0.5 0.846-1.24 1.554-1.843 2.334-0.12999 0.169-0.306 0.371-0.39099 0.565-0.087006 0.202-0.028 0.524-0.177 0.69-0.365 0.407-0.66101 0.812-0.94 1.282-0.21201 0.359-0.34601 0.941-0.616 1.232-0.429 0.464-0.858 0.928-1.288 1.392-0.74399 0.804-1.417 1.694-2.12 2.535-0.595 0.712-1.471 1.548-1.722 2.438-0.546 1.938-0.616 4.07-0.026993 5.998 0.116 0.382 0.465 0.656 0.60399 1.046 0.177 0.493 0.211 0.908 0.129 1.424-0.094986 0.601 1.715 1.613 2.22 1.848 0.37801 0.176 0.68001 0.386 1.095 0.365 0.739-0.036995 1.478-0.072998 2.217-0.10899 1.105-0.054001 2.205-0.085007 3.312-0.10101 2.143-0.029999 4.293 0.156 6.433 0.271 4.299 0.233 8.619 1.031 12.809 1.985 1.025 0.23299 2.042 0.498 3.062 0.752 0.43399 0.108 0.862 0.247 1.292 0.372 0.39601 0.115 1.113 0.482 1.499 0.353 0.323-0.108 0.66-0.741 0.916-1.021 0.474-0.518 0.162-0.69 0.276-1.329 0.15799-0.884 0.769-2.055 1.22-2.844 1.009-1.765 1.653-3.902 2.286-5.828 0.615-1.872 1.152-3.744 1.658-5.649 1.057-3.979 1.559-8.218 1.741-12.329 0.135-3.051 0.107-5.861-1.381-8.607-1.327-2.445-4.039-4.5-6.66-5.326" fill="#7f3f00"/>
  <g fill="#093">
   <path d="m132.77 116.87c-0.17 0.382 0.91 1.154 1.187 1.39 0.282 0.241 0.589 0.456 0.884 0.682 0.11 0.084 0.826-0.033997 0.994-0.033997-1.16-0.539-2.121-1.175-3.065-2.038"/>
   <path d="m166.66 122.48c0.078995-0.028999 0.11499 0.014 0.142-0.056999-0.076996-0.004997-0.077988 0.034004-0.142 0.056999"/>
  </g>
  <path d="m126.27 144.84c-0.294 0.268-0.513 0.89801-0.817 1.076-0.354 0.20799-0.752 0.478-1.013 0.71899-0.766 0.707-1.548 1.398-2.28 2.14-1.615 1.636-3.187 3.287-4.684 5.032-2.801 3.267-5.254 6.724-7.61 10.319-2.346 3.58-4.243 7.503-5.952 11.417-0.803 1.839-1.476 3.724-2.196 5.596-0.425 1.104-0.853 2.208-1.289 3.308-0.129 0.32599-0.521 0.86899-0.31 1.187 0.369 0.556 0.738 1.113 1.107 1.669 2.427 3.66 5.245 7.055 8.148 10.341 1.357 1.536 2.903 2.841 4.33 4.306 1.466 1.505 2.894 2.99 4.479 4.378 0.865 0.758 1.59 1.391 2.688 1.785 1.018 0.366 1.805 0.43399 2.875 0.43399 2.188 0 4.376-0.001999 6.565-0.013992 4.396-0.02301 8.789-0.11601 13.184-0.233 7.06-0.188 14.124-0.72301 21.167-1.225-0.44501-0.849-0.72-1.673-0.606-2.641 0.069992-0.595 0.135-1.124 0.377-1.675 0.136-0.311 1.085-0.451 1.393-0.496 2.262-0.327 3.837 1.21 5.732 2.123 0.069992-0.442 0.19499-0.938 0.17-1.387-0.026001-0.465-0.27699-0.66299-0.52899-1.075-0.34401-0.563-0.29401-0.931-0.29401-1.599 0-0.698-0.067001-0.79399-0.551-1.311-1.435-1.527-3.064-2.858-4.768-4.071-0.784-0.558-1.702-1.007-2.442-1.61-0.804-0.65599 0.37199-1.554 0.005997-2.359-0.192-0.422-0.653-0.767-0.814-1.165-0.146-0.358 0.024002-0.89101-0.199-1.245-0.468-0.745-1.708-1.425-2.413-1.939-0.563-0.411-1.137-0.77901-1.73-1.146 0.127-0.083008 0.217-0.222 0.34-0.31201-0.435-0.10599-0.756-0.329-1.069-0.642-0.196-0.196 0.19-1.258 0.274-1.538 0.286-0.951 0.70999-2.066 1.235-2.911 1.112-1.79 2.396-3.616 3.254-5.542 0.843-1.893 1.852-3.701 2.654-5.622 0.79901-1.915 1.383-3.897 2.023-5.867 0.642-1.976 1.107-4.015 1.656-6.019 0.34201-1.247 0.683-2.494 1.025-3.742 0.145-0.52699 0.289-1.054 0.433-1.581 0.097992-0.358-0.48801-0.91901-0.68201-1.208-2.386-3.568-5.624-6.275-9.255-8.501-1.632-1-3.573-2.415-5.456-2.843-2.06-0.46899-4.156-0.92-6.267-1.083-2.203-0.17099-4.385-0.35399-6.597-0.282-2.094 0.069-4.326 0.99301-6.258 1.757-1.682 0.66499-3.259 1.46-4.831 2.351-1.515 0.86699-2.796 1.881-4.203 2.946m28.719 52.416c0.285-0.73999 0.364-1.435 1.106-1.91 0.347-0.222 0.646-0.41899 1.05-0.523 0.24199-0.063004 1.022-0.022995 1.05-0.227 0.76402 0.11 2.147 0.451 2.128 1.387-0.005005 0.241-0.107 0.569-0.199 0.793-0.241 0.588-0.543 0.60899-1.146 0.776-0.248 0.069-1.099 0.20799-1.19 0.403-0.28598 0.612-0.573 1.224-0.85899 1.836-0.2 0.427 0.231 0.593 0.52899 0.911 0.324 0.34601 0.66301 0.711 0.91501 1.113 0.498 0.793 0.36499 1.941 0.186 2.814-0.05899 0.285-0.052002 0.93201-0.41899 0.918-0.414-0.015991-1.218 0.063004-1.522-0.23999-0.44699-0.44601-0.495-0.53801-0.58-1.116-0.089981-0.61299-0.364-0.942-0.73799-1.415-0.334-0.422-0.58899-0.692-1.021-0.991-0.18399-0.127-0.34099-0.255-0.48798-0.422-0.14002-0.16-0.053024-0.38301-0.15002-0.51201-0.014999-0.018997-0.028976-0.037994-0.042999-0.056992-0.112 0.11699-0.338 0.65599-0.435 0.648-0.597-0.046005-1.169-0.078995-1.767-0.063004-1.024 0.028-2.116 0.161-3.076 0.546-0.96199 0.386-1.651 1.155-2.552 1.594-0.979 0.477-1.772 1.016-2.585 1.739-0.74602 0.66301-1.268 1.514-2.012 2.164-0.32101 0.28-0.625 0.62401-1.052 0.758-0.18399 0.058014-0.20401 0.166-0.388 0.080002-0.10301-0.047989-0.737-0.28099-0.70401-0.37399 0.692-1.899 1.649-3.813 2.938-5.383 1.482-1.808 3.016-3.592 5.504-3.868 1.102-0.12199 2.284-0.34399 3.384-0.069992 0.78598 0.196 2.514 0.412 2.831 1.322 0.24197-0.353 0.55998-0.64 0.70697-1.033 0.19902-0.53102 0.39801-1.064 0.59802-1.598m4.852-2.858c-0.020981-0.426 0.33702-0.899 0.608-1.196 0.25301-0.278 0.963-0.106 1.066-0.44499 1.595 0.86099 3.066 2.363 4.423 3.564 0.82199 0.728 1.627 1.468 2.43 2.217 0.18399 0.171 0.71701 0.59001 0.69601 0.871-0.015015 0.199-0.648 0.929-0.79501 1.075-0.14801 0.14801-0.69101 0.563-0.90799 0.56601-0.319 0.005997-0.96602-0.474-1.251-0.64101-0.90001-0.52899-1.758-1.083-2.583-1.724-1.495-1.161-2.701-2.681-3.686-4.287" fill="#690"/>
  <path d="m155.11 196.69c-0.03299 1.17-0.795 2.288-1.419 3.198-0.283-0.813-1.705-1.041-2.427-1.221-1-0.25-1.993-0.25-3.011-0.11899-2.097 0.26999-3.847 0.98599-5.219 2.659-1.375 1.676-2.576 3.359-3.476 5.346-0.125 0.27701-0.623 1.116-0.539 1.373 0.12801 0.39101 0.91501 0.35001 1.18 0.21701 0.89-0.444 1.407-1.202 2.026-1.944 0.699-0.83701 1.616-1.597 2.542-2.169 0.43501-0.269 1.029-0.39101 1.411-0.722 0.45599-0.395 0.886-0.73 1.425-1.009 1.094-0.56599 2.246-0.842 3.477-0.912 0.623-0.034988 1.222-0.013 1.841 0.035004 0.45999 0.035004 0.421-0.354 0.68401-0.629 0.155 0.342 0.15099 0.595 0.51099 0.86301 0.47501 0.354 0.785 0.615 1.167 1.086 0.323 0.39899 0.604 0.713 0.713 1.217 0.12601 0.579 0.057999 0.776 0.502 1.219 0.35901 0.358 0.834 0.336 1.335 0.35501 0.593 0.022995 0.57199-0.12201 0.69499-0.722 0.173-0.843 0.412-2.105-0.078995-2.889-0.241-0.384-1.701-1.73-1.564-2.022 0.282-0.60301 0.564-1.206 0.84599-1.809 0.158-0.338 0.793-0.41299 1.139-0.509 0.58899-0.16399 0.924-0.138 1.176-0.69501 0.112-0.248 0.284-0.579 0.284-0.864 0-0.972-1.25-1.265-2.058-1.416-0.022995-0.003998-0.046997-0.009003-0.070999-0.013-0.018005 0.131-1.416 0.312-1.703 0.496-0.658 0.425-1.085 0.866-1.388 1.6"/>
  <path d="m160.02 193.86c-0.53 0.683 0.711 1.853 1.111 2.384 0.55499 0.739 1.223 1.487 1.944 2.07 0.752 0.608 1.522 1.2 2.357 1.691 0.746 0.438 1.743 1.368 2.519 0.705 0.302-0.258 0.51001-0.474 0.75301-0.804 0.33299-0.45 0.448-0.646-0.016998-1.079-0.76401-0.71201-1.524-1.429-2.307-2.122-1.498-1.325-3.096-2.998-4.857-3.949-0.080002 0.26399-0.534 0.19299-0.79401 0.312-0.364 0.166-0.552 0.418-0.709 0.79199"/>
  <g fill="#093">
   <path d="m124.57 146.53c0.291-0.23599 0.563-0.433 0.88599-0.62199 0.208-0.12201 0.455-0.671 0.618-0.879-0.576 0.478-1.029 0.92299-1.504 1.501"/>
   <path d="m114.89 203.28c0.056999 0.046997 0.114 0.093994 0.17 0.142-1.232-1.378-2.513-2.672-3.916-3.877 1.231 1.266 2.476 2.507 3.746 3.735"/>
   <path d="m120.06 207.92c0.686 0.729 1.264 0.616 2.242 0.65001-0.994-0.29401-1.918-0.653-2.838-1.132 0.198 0.162 0.397 0.32199 0.596 0.482"/>
  </g>
  <path d="m174.06 165.16c-0.617-1.026-0.627-2.266-0.76799-3.43-0.13501-1.111-0.33301-2.254-0.63-3.335-0.666-2.417-1.583-4.632-2.802-6.821-2.224 8.12-4.052 16.478-8.291 23.844-1.101 1.914-2.368 3.759-3.31 5.755-0.467 0.98801-0.758 1.999-1.003 3.059-0.093994 0.405 0.38501 0.66899 0.73201 0.82399 0.51099 0.227 0.778-0.28299 1.145-0.62199 1.402-1.298 2.861-2.526 4.241-3.852 1.57-1.508 2.8-3.283 4.011-5.095 2.279-3.412 4.472-6.867 6.675-10.327" fill="#360"/>
  <path d="m121.42 142.57c0.106 0.108 0.191 0.248 0.284 0.368-0.60799 0.129-1.192 0.27501-1.788 0.453 0.522 0.405 1.929 1.893 2.567 1.362 0.833-0.69299 1.778-1.235 2.74-1.73-0.473 0.056992-0.946 0.11299-1.419 0.17 0.045998-0.222 0.113-0.44099 0.199-0.651-0.541 0.078995-1.071 0.164-1.605 0.27701-0.496 0.10399-0.669-0.705-1.091-0.33402 0.036995 0.028015 0.074997 0.056015 0.113 0.085007" fill="#093"/>
  <path d="m262.66 156.95c-3.575 0.699-7.045 1.753-10.593 2.573-3.688 0.85301-7.425 1.368-11.173 1.87 0.057999 0.142 0.065002 0.30699 0.114 0.453-0.655-0.062012-1.282-0.102-1.94-0.040009-0.356 0.033997-1.761 0.43201-1.579-0.102-3.566 0.14801-7.112 0.16101-10.681 0.085007-3.592-0.076004-7.187-0.595-10.745-1.048v0.227c-0.701-0.089996-1.54-0.34801-2.242-0.227 0.16701-0.537-0.758-0.50699-1.135-0.58-0.579-0.11099-1.157-0.222-1.735-0.33299-1.023-0.196-2.04-0.451-3.06-0.666-2.052-0.43201-4.088-0.993-6.119-1.519-2.351-0.608-4.695-1.238-7.039-1.874-0.95799-0.26001-1.91-0.541-2.864-0.813-0.593-0.17-1.187-0.339-1.781-0.509-0.41299-0.118-0.95 0.131-1.356 0.222-2.135 0.479-4.295 1.245-6.217 2.296-0.45599 0.25-0.47499 0.658-0.666 1.133-0.207 0.515-0.51199 0.99802-0.705 1.51-0.39 1.039-1.057 2.047-1.575 3.028 8.411 2.554 16.783 5.345 25.275 7.618 4.112 1.101 8.228 2.266 12.5 2.486 2.095 0.108 4.195 0.022003 6.271-0.289 2.208-0.33101 4.364-0.759 6.609-0.757 2.062 0.001999 4.303 0.118 6.29 0.701 0.46399 0.136 0.926 0.3 1.372 0.48799 0.452 0.18901 0.95801 0.66701 1.419 0.76401 0.409 0.085999 1.017-0.087006 1.43-0.12199 0.69501-0.060013 1.391-0.119 2.086-0.179 2.188-0.18701 4.371-0.43901 6.553-0.67801 1.041-0.114 2.082-0.23399 3.122-0.354 0.38699-0.043991 1.103 0.017014 1.452-0.16699 0.35501-0.187 0.451-0.571 0.96501-0.48 0.25299 0.043991 0.36499 0.325 0.72099 0.269 0.728-0.114 1.455-0.229 2.183-0.34401 0.92499-0.146 1.85-0.291 2.775-0.43999 2.414-0.39201 4.813-0.815 7.217-1.266 1.976-0.371 3.963-0.69701 5.919-1.163 0.41699-0.098999 2.748-0.436 2.895-0.79201 0.082001-0.2-0.71902-1.316-0.832-1.523-0.23001-0.423-0.46402-0.84401-0.69702-1.266-1.197-2.165-2.485-4.278-4.013-6.229-0.806-1.029-1.651-2.013-2.523-2.985-0.21201-0.23601-0.80402-1.085-1.129-1.001-0.539 0.14-1.634 0.218-1.306 0.948-0.845 0.13501-1.656 0.33101-2.44 0.679v-0.084991c-0.34302 0.16-0.68201 0.31999-1.023 0.481" fill="#060"/>
  <g fill="#093">
   <path d="m267.57 154.85c-0.095001 0.105-0.049988 0.054993 0 0"/>
   <path d="m276.59 167.99c0.039001-0.076004 0.039001-0.076004 0 0"/>
   <path d="m265.98 154.91c0.020996 0.093002 0.39999 0.12001 0.482 0 0.063019-0.091995-0.053009-0.50699-0.027008-0.64999-0.27399 0.123-0.54898 0.245-0.823 0.367 0.12003 0.091995 0.237 0.207 0.36801 0.28299"/>
  </g>
  <path d="m272.99 172.09c-2.076 0.153-4.139 0.483-6.175 0.92801-0.77002 0.168-0.44601 0.383-0.71201 1.022-0.19501 0.46701-0.457 0.87201-0.80301 1.248-0.76099 0.828-1.693 1.49-2.572 2.183-3.244 2.558-6.598 4.929-10.001 7.264-0.69099 0.474-1.39 0.935-2.091 1.393-0.54199 0.355-1.035 0.60199-1.484-0.028-1.238 2.075-2.476 4.151-3.713 6.226-0.41 0.687 0.61499 1.563 1.07 2.108 0.687 0.82199 1.447 1.577 2.302 2.224 3.402 2.573 7.338 3.087 11.392 3.836 3.957 0.73 8.1 1.296 12.135 1.144 4.127-0.15601 8.103-0.737 12.146-1.556-1.395-1.686-2.083-3.586-1.879-5.786 0.198-2.136 0.21701-4.271 0.15201-6.414-0.12601-4.233-1.181-8.366-2.627-12.323-0.608-1.665-1.454-3.231-2.09-4.884-1.62 0.89099-3.217 1.269-5.05 1.415" fill="#360"/>
  <path d="m255 177.44c-0.12399 0.351-0.528 0.24699-0.70999 0.53-0.358 0.55699-0.716 1.113-1.074 1.669-0.537 0.83499-1.084 1.665-1.608 2.508-0.737 1.188-1.474 2.375-2.211 3.562-0.522 0.841 0.524 0.888 1.102 0.511 3.565-2.333 7.026-4.779 10.433-7.337 1.159-0.871 2.284-1.794 3.423-2.692 1.008-0.795 1.786-1.765 1.913-3.053-2.432 0.405-4.863 0.811-7.294 1.216-0.58902 0.098999-1.179 0.19699-1.768 0.295-0.16901 0.028-0.647 0.018005-0.785 0.131-0.23602 0.19301-0.36801 1.048-0.534 1.333-0.27101 0.459-0.584 0.89-0.88701 1.327" fill="#690"/>
  <path d="m258.2 200.08c-0.083008-0.007004-0.13101-0.042999-0.22699 0h0.22699" fill="#093"/>
  <path d="m215.66 175.68c-0.558-0.04599-1.116-0.093002-1.674-0.13899-0.067001-0.006012 0.026993-0.218-0.148-0.252-0.321-0.062012-0.64201-0.125-0.96201-0.18701-0.978-0.18999-1.949-0.386-2.911-0.61899-2.378-0.57701-4.749-1.171-7.117-1.788-4.145-1.078-8.185-2.522-12.266-3.808-1.491-0.47-2.994-0.90601-4.491-1.358 1.109 1.845 1.425 3.746 1.618 5.859 0.20201 2.208 0.386 4.414 0.48601 6.629 0.186 4.116 0.285 8.337-1.083 12.284-0.431 1.245-0.90399 2.527-1.56 3.672-0.56299 0.98201-0.946 2.357-2.072 2.802 4.351 0.686 8.698 1.208 13.11 1.246 4.451 0.037994 8.849-0.416 13.252-1.012 2.909-0.39401 5.787-0.925 8.712-1.225-0.45-0.783-0.91299-1.56-1.337-2.358-0.233-0.438-0.63701-0.954-0.763-1.435-0.042007-0.159 0-0.40201 0-0.57001 0-0.18799-0.243-0.433-0.34601-0.595-0.16699-0.26099-0.097992-0.767-0.118-1.065-0.046997-0.70001-0.093002-1.4-0.14-2.101-0.052002-0.77499-0.087997-1.543-0.10899-2.32-0.053009-1.968-0.13901-3.939-0.13901-5.908 0-0.933 0.011002-1.862 0.035995-2.794 0.022003-0.79201 0.343-2.245 0.022003-2.958" fill="#360"/>
  <path d="m215.72 175.68c-0.044006 0.042999-0.042007 0.042007 0 0" fill="#093"/>
  <path d="m187.57 171.84c-0.172-0.98799-0.32599-1.994-0.73799-2.915-0.20401-0.45601-0.44101-0.893-0.698-1.32-0.186-0.30899-1.339-0.416-1.676-0.506-1.026-0.27499-2.017-0.615-3.01-0.99-0.40201-0.15199-0.798-0.36899-1.176-0.575-0.677-0.368-0.806-0.51799-1.457-0.030991-0.92201 0.68999-1.591 1.281-2.234 2.243-0.604 0.903-1.198 1.804-1.838 2.683-0.564 0.774-1.169 1.489-1.436 2.418-0.108 0.37801-0.399 0.97099-0.239 1.371 0.161 0.403 0.802 0.702 1.13 0.979 3.309 2.8 4.248 7.364 5.177 11.385 0.444 1.92 0.769 3.9 0.978 5.86 0.123 1.15 0.226 2.297 0.313 3.45 0.039001 0.505 0.074997 1.011 0.112 1.517 0.043991 0.606 0.28 0.702 0.83099 0.952 0.786 0.356 1.828 0.64801 2.498 0.028 0.709-0.65599 1.104-1.753 1.561-2.604 0.991-1.85 1.546-3.839 2.082-5.849 1.035-3.881 0.64299-8.396 0.31799-12.354-0.155-1.915-0.323-3.828-0.498-5.742" fill="#690"/>
  <path d="m178.63 164.5c-0.037994 0.046997-0.076004 0.093994-0.11301 0.142 0.29201 0.097992 0.569 0.217 0.85101 0.34-0.24701-0.158-0.494-0.31799-0.73801-0.482" fill="#093"/>
  <g fill="#360">
   <path d="m179.37 164.99c-0.534-0.233-0.754-0.5-1.075 0.029007-0.36101 0.59399-0.72099 1.188-1.082 1.783 0.69501-0.655 1.447-1.214 2.271-1.698-0.03801-0.037994-0.076004-0.076996-0.114-0.114"/>
   <path d="m173.21 174.44c-0.51601-0.604 0.2-1.892 0.454-2.491-0.397 0.679-0.79399 1.359-1.192 2.038 0.261 0.13 0.50301 0.28101 0.73801 0.453"/>
   <path d="m180.82 197.9c-0.173 0.53999 0.746 0.51199 1.107 0.595-0.394-0.179-0.743-0.36-1.107-0.595"/>
  </g>
  <path d="m219.47 176.02c-0.435-0.028-0.87-0.057007-1.305-0.085007-0.075012 4.476 0.31599 8.909 0.87999 13.344 0.068008 0.534 0.483-0.14401 0.68001-0.324 0.34999-0.32001 0.8-0.701 1.212-0.93401 0.914-0.51599 1.849-1.089 2.875-1.354 0.69701-0.181 0.66701-0.45401 0.91301-1.098 0.17799-0.466 0.24899-0.963 0.42-1.431 0.076996-0.211-0.438-1.025-0.51001-1.298-0.12-0.46199-0.114-0.90199-0.114-1.378 0-1.904-0.12799-3.725-0.489-5.597-0.019989-0.104-0.082993-0.81801-0.328-0.776-0.551 0.093994-1.103 0.18799-1.654 0.28299-0.87199 0.14902-1.719 0.43901-2.58 0.64801" fill="#03f"/>
  <path d="m223.92 175.32c0.39 2.024 0.59599 3.971 0.59599 6.033 0 0.952 0.101 1.704 0.56401 2.551 0.291 0.532-0.509 2.061-0.707 2.624 2.635-0.87599 5.091-0.95999 7.804-0.368-0.74101-0.61499-0.936-0.746-0.942-1.668-0.009003-1.313-0.018005-2.625-0.027008-3.938-0.013-1.874-0.138-3.734 0.26001-5.573-2.626-0.265-5.13-0.231-7.747 0.11301 0.070007 0.067001 0.12502 0.168 0.199 0.226" fill="#ff0"/>
  <path d="m231.47 174.98c-0.579 2.673-0.26 5.567-0.241 8.284 0.007996 1.199-0.287 2.247 0.951 2.896 0.539 0.282 1.236 0.323 1.796 0.58299 0.57201 0.267 1.116 0.54901 1.666 0.86 0.17401-1.43 0.43401-2.85 0.52101-4.289 0.082001-1.352 0.065994-2.795 0.25099-4.132 0.098999-0.709 0.162-1.451 0.34601-2.145 0.069992-0.265 0.291-0.677 0.12999-0.896-0.148-0.20201-0.996-0.311-1.244-0.388-1.326-0.41402-2.793-0.65302-4.176-0.77301" fill="#c00"/>
  <path d="m227.19 188.22c-1.039 0.037003-1.992 0.21001-3.008 0.425 0.449 0.32001 0.85001 0.60001 1.447 0.425 0.48401-0.14201 1.08-0.63501 1.561-0.85001" fill="#fff"/>
  <path d="m225.62 189.07c-0.227 0-0.711 0.10001-0.89601-0.030991-0.42799-0.30501-0.47899-0.414-0.98299-0.274-0.64101 0.177-1.269 0.431-1.852 0.74899-0.55501 0.302-1.165 0.619-1.616 1.068-0.118 0.118-0.70601 0.56599-0.65001 0.71999 0.129 0.35901 0.26001 0.71501 0.40201 1.069 1.058 2.638 2.415 5.07 3.949 7.455 1.25-1.069 2.556-1.638 4.183-1.862 0.65599-0.089996 1.491-0.177 2.089 0.121 0.671 0.33501 1.263 0.731 1.845 1.203 0.355-1.599 1.084-3.142 1.679-4.669 0.549-1.409 0.83101-2.92 1.304-4.34 0.175-0.524-0.244-0.45-0.728-0.61299-0.394-0.13301-0.787-0.26701-1.183-0.395-0.84601-0.272-1.709-0.571-2.577-0.76601-0.761-0.17099-1.632-0.328-2.413-0.308-1.061 0.025009-1.665 0.29401-2.553 0.873" fill="#ffc"/>
  <path d="m219.72 193.2c0.332 1.417 0.80501 2.721 1.49 4.005 0.351 0.657 0.739 1.281 1.134 1.914 0.147 0.23601 0.56999 0.41101 0.80899 0.574 0.177 0.12 0.35301 0.239 0.53 0.35901 0.070999 0.048996 0.31001-0.20401 0.28201-0.24701-1.616-2.511-2.99-5.074-4.103-7.849-0.38699 0.44-0.24699 0.658-0.142 1.244" fill="#fff"/>
  <g fill="#093">
   <path d="m219.61 192.3c-0.046997-0.198-0.095001-0.39601-0.142-0.59401 0.035995 0.205 0.057999 0.623 0.142 0.59401"/>
   <path d="m315.78 84.38c-0.48999-0.542-0.97202-1.087-1.447-1.642 0.577 0.812 1.153 1.623 1.73 2.434-0.14398-0.246-0.25299-0.505-0.28299-0.792"/>
   <path d="m322.22 97.258c0.22101-0.479-0.34201-0.69801-0.65201-0.96201 0.21802 0.321 0.43399 0.64201 0.65201 0.96201"/>
   <path d="m339.96 109.15c0.73001-0.077003 1.453-0.18201 2.184-0.255-0.58899-0.333-1.171-0.626-1.787-0.906-0.13199 0.387-0.26498 0.774-0.397 1.161"/>
  </g>
  <path d="m359.57 182.48c0 0.519-0.016998 1.014-0.069 1.53-0.036987 0.37201 0.897 0.49301 1.224 0.66 1.019 0.523 1.96 1.072 2.846 1.8-1.218-1.478-2.516-2.781-4.001-3.99" fill="#690"/>
  <g fill="#093">
   <path d="m263.82 38.643c-0.483-0.449-0.854-1.016-1.305-1.5-0.090027 0.345-0.35001 0.69 0.003998 0.864 0.43399 0.212 0.867 0.424 1.301 0.636"/>
   <path d="m129.48 115.12c-0.123 0.208-0.246 0.415-0.369 0.623 0.14299-0.197 0.345-0.383 0.369-0.623"/>
   <path d="m241.89 176.79c0.018997 0.12399-0.019989 0.271-0.028 0.396-0.194-0.099991-0.40799-0.17-0.62399-0.198-0.016998 0.11101-0.10001 0.63901 0.014999 0.659 0.256 0.044998 0.644 0.22301 0.855 0.048004 0.519-0.429 1.032-0.795 1.599-1.16-0.606 0.085007-1.212 0.17-1.817 0.255"/>
  </g>
  <g fill="#690">
   <path d="m166.12 182.02c-0.79001 0.733-1.575 1.467-2.39 2.172-0.75 0.649-1.267 1.005-0.93001 2.073 1.092-1.427 2.219-2.825 3.32-4.245"/>
   <path d="m168.1 208.91c0.97499-0.041 1.736-0.24301 2.61-0.68001-0.74501-0.244-0.99701-0.205-1.365-0.94-0.157-0.31299-0.033005-0.353-0.338-0.56-0.252-0.17099-0.7-0.21899-0.993-0.31099 0.028 0.83 0.057007 1.661 0.085999 2.491"/>
  </g>
  <path d="m295.26 60.663c-1.428-2.024-3.068-3.41-5.477-4.132 1.953 1.231 3.772 2.574 5.477 4.132" fill="#060"/>
  <path d="m359.48 83.928c-0.104-0.132-0.20801-0.264-0.31299-0.396-0.07901 0.162 0.14996 0.258 0.31299 0.396"/>
 </g>
 <g fill="none" stroke="#fff" stroke-width="5">
  <g stroke-linecap="round">
   <polyline points="224.82 202.9 224.82 202.9"/>
   <polyline points="231.24 198.89 231.24 198.89"/>
  </g>
  <path d="m231.24 198.08v-4.016l0.4016-0.4016v-0.40161"/>
  <path d="m223.61 182.82v3.2128c0 0.40161 0.28398 0.92084 0 1.2048-0.28398 0.28398-0.40161 0.40161-0.40161 0.80321v1.2048c0 0.40161 0.28397 0.92085 0 1.2048-0.28398 0.28398-0.80321 0-0.80321-0.4016 0-0.40161-0.18426-0.6801-0.40161-1.2048-0.15369-0.37103 0-0.80322 0-1.2048v-1.2048c0-0.40161-0.11763-0.51924-0.40161-0.80322-0.28397-0.28397 0.28398-0.92084 0-1.2048-0.28397-0.28397-0.4016-0.4016-0.4016-0.80321v-3.6144c0-0.40161 0.28397-0.92085 0-1.2048-0.28398-0.28398-0.68559-0.51924-0.40161-0.80322s0.80321 0 1.2048 0h9.6384c0.4016 0 0.92084-0.28397 1.2048 0 0.284 0.28398 0.11763 0.51924 0.40163 0.80322 0.28395 0.28397 0.4016 0.4016 0.80319 0.4016 0.40161 0 0.40161 0.40161 0.80324 0.40161h2.4096c0.40161 0 0.92084-0.28398 1.2048 0 0.28398 0.28398 0 0.80322 0 1.2048v5.6224c0 0.4016-0.40161 0.80321-0.40161 1.2048 0 0.4016-0.18425 0.12311-0.40158-0.40161-0.1537-0.37105-0.030579-0.64952-0.40163-0.80321-0.52473-0.21735-0.2785-0.98747-0.80319-1.2048-0.37106-0.15369-0.2785-0.58588-0.80324-0.80322-0.37103-0.15369-0.80319 0-1.2048 0h-2.4096c-0.4016 0-0.51923-0.11763-0.80321-0.4016-0.28398-0.28398-0.83379 0.15369-1.2048 0-0.52473-0.21735-0.80322-0.80322-1.2048-0.80322h-2.4096c-0.40161 0-0.51926-0.11763-0.80322-0.4016-0.28395-0.28397-0.80319 0-1.2048 0-0.4016 0-0.92082 0.28398-1.2048 0s-0.40161-0.80322-0.80321-0.80322-0.4016-0.4016-0.80322-0.4016c-0.4016 0-0.92084 0.28398-1.2048 0-0.284-0.28398 0 0 0 0.4016v2.4096c0 0.40161-0.28398 0.92085 0 1.2048 0.28397 0.28398 0.4016 0.40161 0.4016 0.80322v1.2048c0 0.4016 0.18426 0.68008 0.40161 1.2048 0.15369 0.37103 0.11762 0.51923 0.4016 0.80321s0.51924 0.11763 0.80322 0.40161c0.28397 0.28397 0 0.80321 0 1.2048 0 0.4016-0.28397 0.92084 0 1.2048 0.28397 0.28397 0.80321 0 0.80321 0.40161v3.6144c0 0.4016 0.40161 0.80321 0.40161 1.2048v1.2048c0 0.4016 0.40161 0.4016 0.40161 0.80321v2.4096c0 0.40161-0.51924 0.11763-0.80322 0.40161-0.28397 0.28397 0.40161 0.4016 0.80322 0.4016 0.4016 0 0.63686-0.16635 1.2048 0.40161 0.28398 0.28398 0.4016 0.40161 0.80321 0.40161s0.92084-0.28398 1.2048 0c0.28397 0.28397 0.51924 0.68556 0.80321 0.4016 0.28397-0.28397 0.28398-0.92084 0-1.2048-0.28397-0.28397-0.51923-0.11762-0.80321-0.4016s-0.40161-0.40161-0.40161-0.80322c0-0.4016-0.18425-0.6801-0.4016-1.2048-0.15369-0.37103-0.40161-0.4016-0.40161-0.80321v-0.40161 9.6385c0 0.4016 0.40161 0.4016 1.2048 0.4016 0.40161 0 0.49583-0.061142 0.80321-0.80321 0.21735-0.52473 0.11763-0.92084 0.40161-1.2048 0.28398-0.28398 0.58586-0.2785 0.80321-0.80321 0.15369-0.37105 0.18426-0.6801 0.40161-1.2048 0.15369-0.37103 0.59689-0.73244 0.80321-1.6064 0.09227-0.39087-0.15369-0.83379 0-1.2048 0.21735-0.52473 0.40161-0.80322 0.40161-1.2048 0-0.40161 0.40161-0.40161 0.40161-0.80322 0-0.4016 0.030563-0.64952 0.4016-0.80321 0.52473-0.21735 0.24792-0.83377 0.40161-1.2048 0.21735-0.52473 0.40161-0.80321 0.80321-1.2048 0.40161-0.40161 0.40161-0.80321 0.40161-0.40161 0 0.40161-0.15369 0.83379 0 1.2048 0.21735 0.52473 0.98747 0.6801 1.2048 1.2048 0.30739 0.74208 0.21707 1.2263 0.40161 2.008 0.20631 0.87399 0.4016 1.6064 0.4016 2.008 0 0.40161 0.28398 0.92084 0 1.2048-0.28397 0.28397-1.2048 0.40161-1.6064 0.40161h-2.4096c-0.40161 0-0.6801-0.18426-1.2048-0.40161-0.37103-0.15369-0.51924-0.11763-0.80322-0.40161-0.28397-0.28397 0-0.80321-0.4016-0.80321-0.40161 0-0.51924-0.11763-0.80322-0.40161-0.28397-0.28397-0.4016-0.4016-0.80321-0.4016s-0.40161-0.40161-0.80321-0.40161c-0.40161 0-0.40161 0.40161-0.40161 0.80321 0 0.40161 0.40161 0.80322 0.40161 1.2048 0 0.40161-0.28398 0.92085 0 1.2048 0.28397 0.28397 0.92084 0.28398 1.2048 0 0.28398-0.28398 0.43216-0.24792 0.80321-0.40161 0.52473-0.21735 0.64952-1.2354 0.80321-1.6064 0.21735-0.52473 0.51924-0.51923 0.80322-0.80321s-0.28397-0.92085 0-1.2048c0.28397-0.28397 0.4016-0.40161 0.4016-0.80322 0-0.4016 0.40161-0.4016 0.80322-0.80321 0.4016-0.40161 0.80321-0.80321 1.2048-1.2048 0.4016-0.40161 0.68008-1.3891 1.2048-1.6064 0.37103-0.15369 0.92084-0.51923 1.2048-0.80321 0.28398-0.28398 0.11763-0.51924 0.4016-0.80321 0.28398-0.28398 0.11763 0.28398 0.40161 0s0.18426-0.6801 0.40161-1.2048c0.30739-0.74208 0.40161-1.2048 0.40161-1.6064 0-0.40161 0-0.80322 0.4016-0.80322 0.40161 0 0.40161-0.4016 0.40161-0.80321v-1.2048c0-0.40161 0-0.80321-0.40161-0.80321h-3.6144c-0.40161 0-0.68008-0.18426-1.2048-0.40161-0.37105-0.15369-0.51923-0.11763-0.80321-0.40161s-0.40161-0.4016-0.80322-0.4016c-0.4016 0-0.83379 0.15369-1.2048 0-0.52472-0.21735-0.80321-0.40161-1.2048-0.40161-0.4016 0-0.80321 0-0.80321-0.40161 0-0.4016-0.15369-0.83379 0-1.2048 0.21735-0.52472 0.51923-0.51923 0.80321-0.80321s0.92085 0.28397 1.2048 0c0.28398-0.28398 0.11764-0.51924 0.40161-0.80321 0.28398-0.28398 0.43218-0.24792 0.80321-0.40161 0.52472-0.21735 0.92085-0.11764 1.2048-0.40161s0-0.80321 0.40161-1.2048c0.40161-0.4016 0.40161-0.80321 0.40161-1.2048 0-0.4016 0.11763-0.51924 0.4016-0.80321 0.28398-0.28398 0-0.80322 0-1.2048v-1.6064c0 0.40161-0.4016 0.40161-0.80321 0.40161h0.40161c0.4016 0 0.51924 0.11763 0.80321 0.4016 0.28398 0.28398 0.40161 0.40161 0.80319 0.40161 0.40163 0 0.80324 0.40161 1.2048 0.40161 0.40161 0 0.11763 0.51923 0.40161 0.80321 0.284 0.28398 0.51926 0.11763 0.80324 0.40161 0.28395 0.28397 0.80319 0 1.2048 0h1.2048c0.4016 0 0.80321 0.40161 1.2048 0.40161h0.80322"/>
  <path d="m226.52 181.42s-0.10039 0.1004-0.10039 0.20081c0 0.10039-0.01738 0.28641-0.1004 0.4016-0.13127 0.18213-0.1004 0.30121-0.1004 0.40161s-0.1004 0.30121-0.1004 0.40161c0 0.4016-0.1004 0.90361-0.1004 1.6064v4.3172c0 0.20081-0.071167 0.70534 0 1.7068 0.050323 0.70818 0.25088 1.4003 0.30121 2.1084 0.04982 0.70104 0.1004 1.2048 0.1004 1.7068v0.70282c0 0.20081 0.10039 0.4016 0.10039 0.502v0.30121c0 0.1004 0.02356 0.2161 0.1004 0.40161 0.054337 0.13118 0.16864 0.4042 0.20081 0.6024 0.050858 0.3134 0.1004 0.40161 0.1004 0.50201s0 0.20081 0.1004 0.20081 0.20081-0.20081 0.20081-0.50201v-1.7068c0-0.40161-0.05719-1.1178-0.20081-1.506-0.15579-0.42113-0.24687-0.67204-0.30121-0.80322-0.076843-0.1855-0.14923-0.4843-0.20081-0.7028-0.069199-0.29315 0-0.60242 0-1.004v-1.004c0-0.20081 0-0.60242 0.1004-0.80322 0.1004-0.20081 0.16994-0.42027 0.30121-0.6024 0.083023-0.11519 0.18602-0.083023 0.30121 0 0.36426 0.26254 1.037 0.49358 1.506 1.2048 0.59528 0.90276 0.86114 1.9816 1.2048 2.8112 0.12151 0.29332 0.35002 0.48431 0.4016 0.7028 0.023071 0.097717 0.14647 0.27043 0.20081 0.40161 0.038422 0.092758 0 0.20079 0 0.30119s0 0.30121 0.1004 0.30121h0.1004"/>
  <path d="m234.16 193.87s0.070999-0.12981 0-0.20081c-0.070999-0.070999-0.1004-0.1004-0.20079-0.1004h-1.6064c-0.40161 0-0.80771-0.023956-1.4056 0.1004-0.81058 0.16859-1.4128 0.3706-1.9076 0.502-0.30685 0.081482-0.47122 0.14647-0.6024 0.20081-0.18552 0.076843-0.30121 0-0.40161 0s-0.1004-0.1004-0.1004-0.20081c0-0.30119 0.069534-0.62108 0.20081-0.80321 0.16605-0.23038 0.30926-0.4328 0.60242-0.502 0.21851-0.051575 0.4016-0.20081 0.7028-0.20081h3.012c0.6024 0 1.21-0.064331 1.6064 0 0.3134 0.050858 0.47124 0.14647 0.60242 0.20081 0.18552 0.076843 0.23021 0.17139 0.30121 0.10039 0.14198-0.14198-0.080017-0.32695-0.20081-0.4016-0.27008-0.16692-0.61157-0.2807-1.3052-0.60242-0.61101-0.28339-1.095-0.61684-1.7068-1.004-0.49469-0.31306-1.1044-0.7028-2.3092-1.1044-1.2048-0.40161-1.9306-0.77606-2.4096-1.2048-0.3174-0.28409-0.43008-0.70383-0.40161-1.1044 0.050323-0.70818 0.4003-1.6824 0.50201-2.3092 0.064331-0.39642 0.1004-0.60242 0.1004-0.80322v-0.4016c0-0.1004 0.1004-0.20081 0.1004-0.30121v-2.4096c0-0.20081-0.1004-0.20081-0.1004-0.30121v-0.30121c0-0.1004 0-0.20081 0.1004-0.20081s0.23021-0.070999 0.30121 0c0.070999 0.070999 0.10805 0.061981 0.20079 0.1004 0.13118 0.054337 0.27043 0.14647 0.40161 0.20081 0.092758 0.038422 0.30885-0.038422 0.40161 0 0.13118 0.054337 0.17003 0.14647 0.30121 0.20082 0.1855 0.076828 0.28349 0.14922 0.502 0.20079 0.19544 0.046143 0.50201 0.1004 0.70282 0.1004 0.1004 0 0.30884-0.038422 0.4016 0 0.13118 0.054337 0.20081 0.1004 0.30121 0.1004s0.20081 0 0.20081-0.20081c0-0.1004-0.038849-0.29294-0.30121-0.40161-0.092758-0.038422-0.20081 0-0.40161-0.1004-0.20079-0.1004-0.41688-0.02356-0.6024-0.1004-0.13118-0.054337-0.17003-0.14645-0.30121-0.20079-0.092758-0.038422-0.20081 0-0.30121 0h-3.4136 0.1004"/>
  <path d="m230.24 205.01v-0.20081c0-0.1004-0.029404-0.12981-0.1004-0.20081-0.070999-0.070999-0.1004-0.20081-0.20081-0.40161-0.1004-0.20079-0.03389-0.33232-0.20081-0.6024-0.074646-0.12079-0.24286-0.24286-0.40161-0.40161s-0.35492-0.23201-0.502-0.4016c-0.20804-0.23985-0.31569-0.49541-0.40161-0.70282-0.12151-0.29334-0.24963-0.5847-0.30121-0.80321-0.023071-0.097717 0.038422-0.30885 0-0.40161-0.054337-0.13118-0.12981-0.2718-0.20081-0.20081-0.21298 0.21298-0.11534 0.71625 0 1.2048 0.10316 0.437 0.23262 0.99297 0.60242 2.1084 0.32985 0.99496 0.4996 1.7851 0.90361 2.2088 0.24982 0.26199 0.30121 0.4016 0.50201 0.502v0.1004"/>
  <path d="m220.9 190.15v0.20081c0 0.10039-0.1004 0.30119 0 0.30119s0.1004-0.1004 0.1004-0.20081c0-0.10039 0.029404-0.12979 0.1004-0.20079 0.070999-0.070999 0.1004-0.30121 0-0.30121s0 0.20081 0 0.30121v0.30119c0 0.1004 0.029404 0.12981 0.1004 0.20081 0.070999 0.070999 0.1004 0.1004 0.20081 0.1004v0.1004"/>
  <path d="m220.7 179.11v0.20079c0 0.1004-0.1004 0.1004-0.1004 0.20081 0 0.1004-0.1004 0.1004-0.1004 0.20081v0.90361c0 0.1004-0.1004 0.30121 0 0.30121s0-0.20081 0-0.30121v-1.2048c0-0.1004-0.1004-0.20081-0.1004-0.30119v-0.30121c0-0.1004-0.029404-0.12981-0.1004-0.20081-0.070999-0.070999 0-0.20081 0-0.30121v-0.30121c0-0.10039-0.12979-0.17139-0.20079-0.10039-0.070984 0.070984-0.029404 0.12979-0.1004 0.20079-0.070999 0.070999-0.20081 0-0.30121 0h3.514c0.1004 0 0.20845 0.038422 0.30121 0 0.13118-0.054337 0.11021-0.28357 0.30119-0.4016 0.085419-0.05278 0.10042-0.1004 0.20082-0.20081 0.10039-0.1004 0.12979-0.12981 0.20079-0.20081 0.070999-0.070999 0.12981-0.029404 0.20081-0.1004 0.070984-0.070999 0.23019 0.029404 0.30119 0.1004 0.071014 0.070999 0 0.20081 0.10042 0.20081h0.6024c0.1004 0 0.17003-0.046066 0.30121-0.1004 0.092743-0.038422 0.23019 0.070999 0.30119 0 0.070999-0.070999 0.10042-0.1004 0.20082-0.1004 0.10039 0 0.10805-0.061981 0.20081-0.1004 0.13116-0.054337 0.23019-0.029404 0.30119-0.1004 0.070999-0.070999 0.1004-0.1004 0.20079-0.1004h0.30121c0.10042 0 0.17004 0.046066 0.30122 0.1004 0.18552 0.076843 0.27042 0.046066 0.4016 0.1004 0.092743 0.038422 0.20079 0 0.30119 0 0.10042 0 0.20082 0.1004 0.40163 0.1004h0.90359c0.10042 0 0.10042 0.1004 0.20081 0.1004h1.1044c0.40161 0 0.5847 0.048828 0.80319 0.1004 0.19545 0.046143 0.40698 0.05426 0.60242 0.1004 0.21852 0.051575 0.30122 0.20081 0.502 0.20081 0.1004 0 0.3066 0.054276 0.50201 0.1004 0.21849 0.051575 0.30121 0.10039 0.40161 0.10039 0.20081 0 0.30887-0.038422 0.4016 0 0.13118 0.054337 0.40161 0.1004 0.50201 0.1004 0.10042 0 0.12981 0.029404 0.20081 0.1004 0.070999 0.070999 0.12982 0.029404 0.20082 0.1004 0.070984 0.070999 0.20079 0.1004 0.30118 0.1004 0.1004 0 0.30122 0.10042 0.40161 0.10042h0.40161c0.1004 0 0.1004 0.10039 0.20082 0.10039 0.10039 0 0.10039 0.1004 0.20079 0.1004 0.10039 0 0.10039 0.1004 0.20079 0.1004 0.10042 0 0.20081 0.1004 0.30121 0.1004 0.20082 0 0.20082 0.1004 0.30121 0.1004 0.1004 0 0.17003 0.14647 0.30121 0.20079 0.092758 0.038422 0.12979 0.029404 0.20079 0.1004 0.070999 0.070999 0.17004 0.14647 0.30121 0.20081 0.092758 0.038422 0.20081 0 0.30121 0h0.30121c0.1004 0 0.12981 0.029404 0.20081 0.1004 0.070984 0.070999 0.20079 0 0.30119 0h2.1084c0.1004 0 0.16237-0.007645 0.20079-0.1004 0.054337-0.13118 0.20081-0.10039 0.30121-0.20081h0.1004v-0.1004h0.1004"/>
 </g>
</svg>
